<?xml version="1.0" encoding="utf-8" standalone="no"?>
<!DOCTYPE svg PUBLIC "-//W3C//DTD SVG 1.1//EN"
  "http://www.w3.org/Graphics/SVG/1.1/DTD/svg11.dtd">
<svg xmlns:xlink="http://www.w3.org/1999/xlink" width="460.8pt" height="345.6pt" viewBox="0 0 460.8 345.6" xmlns="http://www.w3.org/2000/svg" version="1.1">
 <metadata>
  <rdf:RDF xmlns:dc="http://purl.org/dc/elements/1.1/" xmlns:cc="http://creativecommons.org/ns#" xmlns:rdf="http://www.w3.org/1999/02/22-rdf-syntax-ns#">
   <cc:Work>
    <dc:type rdf:resource="http://purl.org/dc/dcmitype/StillImage"/>
    <dc:date>2022-05-01T00:01:33.800377</dc:date>
    <dc:format>image/svg+xml</dc:format>
    <dc:creator>
     <cc:Agent>
      <dc:title>Matplotlib v3.5.1, https://matplotlib.org/</dc:title>
     </cc:Agent>
    </dc:creator>
   </cc:Work>
  </rdf:RDF>
 </metadata>
 <defs>
  <style type="text/css">*{stroke-linejoin: round; stroke-linecap: butt}</style>
 </defs>
 <g id="figure_1">
  <g id="patch_1">
   <path d="M 0 345.6 
L 460.8 345.6 
L 460.8 0 
L 0 0 
z
" style="fill: #ffffff"/>
  </g>
  <g id="axes_1">
   <g id="patch_2">
    <path d="M 57.6 307.584 
L 414.72 307.584 
L 414.72 41.472 
L 57.6 41.472 
z
" style="fill: #ffffff"/>
   </g>
   <g id="matplotlib.axis_1">
    <g id="xtick_1">
     <g id="line2d_1">
      <defs>
       <path id="m47e109aa4e" d="M 0 0 
L 0 3.5 
" style="stroke: #000000; stroke-width: 0.8"/>
      </defs>
      <g>
       <use xlink:href="#m47e109aa4e" x="73.831138" y="307.584" style="stroke: #000000; stroke-width: 0.8"/>
      </g>
     </g>
     <g id="text_1">
      <!-- −1.00 -->
      <g transform="translate(58.508481 322.182437)scale(0.1 -0.1)">
       <defs>
        <path id="DejaVuSans-2212" d="M 678 2272 
L 4684 2272 
L 4684 1741 
L 678 1741 
L 678 2272 
z
" transform="scale(0.015625)"/>
        <path id="DejaVuSans-31" d="M 794 531 
L 1825 531 
L 1825 4091 
L 703 3866 
L 703 4441 
L 1819 4666 
L 2450 4666 
L 2450 531 
L 3481 531 
L 3481 0 
L 794 0 
L 794 531 
z
" transform="scale(0.015625)"/>
        <path id="DejaVuSans-2e" d="M 684 794 
L 1344 794 
L 1344 0 
L 684 0 
L 684 794 
z
" transform="scale(0.015625)"/>
        <path id="DejaVuSans-30" d="M 2034 4250 
Q 1547 4250 1301 3770 
Q 1056 3291 1056 2328 
Q 1056 1369 1301 889 
Q 1547 409 2034 409 
Q 2525 409 2770 889 
Q 3016 1369 3016 2328 
Q 3016 3291 2770 3770 
Q 2525 4250 2034 4250 
z
M 2034 4750 
Q 2819 4750 3233 4129 
Q 3647 3509 3647 2328 
Q 3647 1150 3233 529 
Q 2819 -91 2034 -91 
Q 1250 -91 836 529 
Q 422 1150 422 2328 
Q 422 3509 836 4129 
Q 1250 4750 2034 4750 
z
" transform="scale(0.015625)"/>
       </defs>
       <use xlink:href="#DejaVuSans-2212"/>
       <use xlink:href="#DejaVuSans-31" x="83.789062"/>
       <use xlink:href="#DejaVuSans-2e" x="147.412109"/>
       <use xlink:href="#DejaVuSans-30" x="179.199219"/>
       <use xlink:href="#DejaVuSans-30" x="242.822266"/>
      </g>
     </g>
    </g>
    <g id="xtick_2">
     <g id="line2d_2">
      <g>
       <use xlink:href="#m47e109aa4e" x="114.413226" y="307.584" style="stroke: #000000; stroke-width: 0.8"/>
      </g>
     </g>
     <g id="text_2">
      <!-- −0.75 -->
      <g transform="translate(99.090569 322.182437)scale(0.1 -0.1)">
       <defs>
        <path id="DejaVuSans-37" d="M 525 4666 
L 3525 4666 
L 3525 4397 
L 1831 0 
L 1172 0 
L 2766 4134 
L 525 4134 
L 525 4666 
z
" transform="scale(0.015625)"/>
        <path id="DejaVuSans-35" d="M 691 4666 
L 3169 4666 
L 3169 4134 
L 1269 4134 
L 1269 2991 
Q 1406 3038 1543 3061 
Q 1681 3084 1819 3084 
Q 2600 3084 3056 2656 
Q 3513 2228 3513 1497 
Q 3513 744 3044 326 
Q 2575 -91 1722 -91 
Q 1428 -91 1123 -41 
Q 819 9 494 109 
L 494 744 
Q 775 591 1075 516 
Q 1375 441 1709 441 
Q 2250 441 2565 725 
Q 2881 1009 2881 1497 
Q 2881 1984 2565 2268 
Q 2250 2553 1709 2553 
Q 1456 2553 1204 2497 
Q 953 2441 691 2322 
L 691 4666 
z
" transform="scale(0.015625)"/>
       </defs>
       <use xlink:href="#DejaVuSans-2212"/>
       <use xlink:href="#DejaVuSans-30" x="83.789062"/>
       <use xlink:href="#DejaVuSans-2e" x="147.412109"/>
       <use xlink:href="#DejaVuSans-37" x="179.199219"/>
       <use xlink:href="#DejaVuSans-35" x="242.822266"/>
      </g>
     </g>
    </g>
    <g id="xtick_3">
     <g id="line2d_3">
      <g>
       <use xlink:href="#m47e109aa4e" x="154.995314" y="307.584" style="stroke: #000000; stroke-width: 0.8"/>
      </g>
     </g>
     <g id="text_3">
      <!-- −0.50 -->
      <g transform="translate(139.672657 322.182437)scale(0.1 -0.1)">
       <use xlink:href="#DejaVuSans-2212"/>
       <use xlink:href="#DejaVuSans-30" x="83.789062"/>
       <use xlink:href="#DejaVuSans-2e" x="147.412109"/>
       <use xlink:href="#DejaVuSans-35" x="179.199219"/>
       <use xlink:href="#DejaVuSans-30" x="242.822266"/>
      </g>
     </g>
    </g>
    <g id="xtick_4">
     <g id="line2d_4">
      <g>
       <use xlink:href="#m47e109aa4e" x="195.577402" y="307.584" style="stroke: #000000; stroke-width: 0.8"/>
      </g>
     </g>
     <g id="text_4">
      <!-- −0.25 -->
      <g transform="translate(180.254746 322.182437)scale(0.1 -0.1)">
       <defs>
        <path id="DejaVuSans-32" d="M 1228 531 
L 3431 531 
L 3431 0 
L 469 0 
L 469 531 
Q 828 903 1448 1529 
Q 2069 2156 2228 2338 
Q 2531 2678 2651 2914 
Q 2772 3150 2772 3378 
Q 2772 3750 2511 3984 
Q 2250 4219 1831 4219 
Q 1534 4219 1204 4116 
Q 875 4013 500 3803 
L 500 4441 
Q 881 4594 1212 4672 
Q 1544 4750 1819 4750 
Q 2544 4750 2975 4387 
Q 3406 4025 3406 3419 
Q 3406 3131 3298 2873 
Q 3191 2616 2906 2266 
Q 2828 2175 2409 1742 
Q 1991 1309 1228 531 
z
" transform="scale(0.015625)"/>
       </defs>
       <use xlink:href="#DejaVuSans-2212"/>
       <use xlink:href="#DejaVuSans-30" x="83.789062"/>
       <use xlink:href="#DejaVuSans-2e" x="147.412109"/>
       <use xlink:href="#DejaVuSans-32" x="179.199219"/>
       <use xlink:href="#DejaVuSans-35" x="242.822266"/>
      </g>
     </g>
    </g>
    <g id="xtick_5">
     <g id="line2d_5">
      <g>
       <use xlink:href="#m47e109aa4e" x="236.15949" y="307.584" style="stroke: #000000; stroke-width: 0.8"/>
      </g>
     </g>
     <g id="text_5">
      <!-- 0.00 -->
      <g transform="translate(225.026677 322.182437)scale(0.1 -0.1)">
       <use xlink:href="#DejaVuSans-30"/>
       <use xlink:href="#DejaVuSans-2e" x="63.623047"/>
       <use xlink:href="#DejaVuSans-30" x="95.410156"/>
       <use xlink:href="#DejaVuSans-30" x="159.033203"/>
      </g>
     </g>
    </g>
    <g id="xtick_6">
     <g id="line2d_6">
      <g>
       <use xlink:href="#m47e109aa4e" x="276.741578" y="307.584" style="stroke: #000000; stroke-width: 0.8"/>
      </g>
     </g>
     <g id="text_6">
      <!-- 0.25 -->
      <g transform="translate(265.608766 322.182437)scale(0.1 -0.1)">
       <use xlink:href="#DejaVuSans-30"/>
       <use xlink:href="#DejaVuSans-2e" x="63.623047"/>
       <use xlink:href="#DejaVuSans-32" x="95.410156"/>
       <use xlink:href="#DejaVuSans-35" x="159.033203"/>
      </g>
     </g>
    </g>
    <g id="xtick_7">
     <g id="line2d_7">
      <g>
       <use xlink:href="#m47e109aa4e" x="317.323666" y="307.584" style="stroke: #000000; stroke-width: 0.8"/>
      </g>
     </g>
     <g id="text_7">
      <!-- 0.50 -->
      <g transform="translate(306.190854 322.182437)scale(0.1 -0.1)">
       <use xlink:href="#DejaVuSans-30"/>
       <use xlink:href="#DejaVuSans-2e" x="63.623047"/>
       <use xlink:href="#DejaVuSans-35" x="95.410156"/>
       <use xlink:href="#DejaVuSans-30" x="159.033203"/>
      </g>
     </g>
    </g>
    <g id="xtick_8">
     <g id="line2d_8">
      <g>
       <use xlink:href="#m47e109aa4e" x="357.905754" y="307.584" style="stroke: #000000; stroke-width: 0.8"/>
      </g>
     </g>
     <g id="text_8">
      <!-- 0.75 -->
      <g transform="translate(346.772942 322.182437)scale(0.1 -0.1)">
       <use xlink:href="#DejaVuSans-30"/>
       <use xlink:href="#DejaVuSans-2e" x="63.623047"/>
       <use xlink:href="#DejaVuSans-37" x="95.410156"/>
       <use xlink:href="#DejaVuSans-35" x="159.033203"/>
      </g>
     </g>
    </g>
    <g id="xtick_9">
     <g id="line2d_9">
      <g>
       <use xlink:href="#m47e109aa4e" x="398.487842" y="307.584" style="stroke: #000000; stroke-width: 0.8"/>
      </g>
     </g>
     <g id="text_9">
      <!-- 1.00 -->
      <g transform="translate(387.35503 322.182437)scale(0.1 -0.1)">
       <use xlink:href="#DejaVuSans-31"/>
       <use xlink:href="#DejaVuSans-2e" x="63.623047"/>
       <use xlink:href="#DejaVuSans-30" x="95.410156"/>
       <use xlink:href="#DejaVuSans-30" x="159.033203"/>
      </g>
     </g>
    </g>
   </g>
   <g id="matplotlib.axis_2">
    <g id="ytick_1">
     <g id="line2d_10">
      <defs>
       <path id="m353642b3cb" d="M 0 0 
L -3.5 0 
" style="stroke: #000000; stroke-width: 0.8"/>
      </defs>
      <g>
       <use xlink:href="#m353642b3cb" x="57.6" y="295.490665" style="stroke: #000000; stroke-width: 0.8"/>
      </g>
     </g>
     <g id="text_10">
      <!-- −1.00 -->
      <g transform="translate(19.954687 299.289884)scale(0.1 -0.1)">
       <use xlink:href="#DejaVuSans-2212"/>
       <use xlink:href="#DejaVuSans-31" x="83.789062"/>
       <use xlink:href="#DejaVuSans-2e" x="147.412109"/>
       <use xlink:href="#DejaVuSans-30" x="179.199219"/>
       <use xlink:href="#DejaVuSans-30" x="242.822266"/>
      </g>
     </g>
    </g>
    <g id="ytick_2">
     <g id="line2d_11">
      <g>
       <use xlink:href="#m353642b3cb" x="57.6" y="265.250331" style="stroke: #000000; stroke-width: 0.8"/>
      </g>
     </g>
     <g id="text_11">
      <!-- −0.75 -->
      <g transform="translate(19.954687 269.04955)scale(0.1 -0.1)">
       <use xlink:href="#DejaVuSans-2212"/>
       <use xlink:href="#DejaVuSans-30" x="83.789062"/>
       <use xlink:href="#DejaVuSans-2e" x="147.412109"/>
       <use xlink:href="#DejaVuSans-37" x="179.199219"/>
       <use xlink:href="#DejaVuSans-35" x="242.822266"/>
      </g>
     </g>
    </g>
    <g id="ytick_3">
     <g id="line2d_12">
      <g>
       <use xlink:href="#m353642b3cb" x="57.6" y="235.009996" style="stroke: #000000; stroke-width: 0.8"/>
      </g>
     </g>
     <g id="text_12">
      <!-- −0.50 -->
      <g transform="translate(19.954687 238.809215)scale(0.1 -0.1)">
       <use xlink:href="#DejaVuSans-2212"/>
       <use xlink:href="#DejaVuSans-30" x="83.789062"/>
       <use xlink:href="#DejaVuSans-2e" x="147.412109"/>
       <use xlink:href="#DejaVuSans-35" x="179.199219"/>
       <use xlink:href="#DejaVuSans-30" x="242.822266"/>
      </g>
     </g>
    </g>
    <g id="ytick_4">
     <g id="line2d_13">
      <g>
       <use xlink:href="#m353642b3cb" x="57.6" y="204.769662" style="stroke: #000000; stroke-width: 0.8"/>
      </g>
     </g>
     <g id="text_13">
      <!-- −0.25 -->
      <g transform="translate(19.954687 208.56888)scale(0.1 -0.1)">
       <use xlink:href="#DejaVuSans-2212"/>
       <use xlink:href="#DejaVuSans-30" x="83.789062"/>
       <use xlink:href="#DejaVuSans-2e" x="147.412109"/>
       <use xlink:href="#DejaVuSans-32" x="179.199219"/>
       <use xlink:href="#DejaVuSans-35" x="242.822266"/>
      </g>
     </g>
    </g>
    <g id="ytick_5">
     <g id="line2d_14">
      <g>
       <use xlink:href="#m353642b3cb" x="57.6" y="174.529327" style="stroke: #000000; stroke-width: 0.8"/>
      </g>
     </g>
     <g id="text_14">
      <!-- 0.00 -->
      <g transform="translate(28.334375 178.328546)scale(0.1 -0.1)">
       <use xlink:href="#DejaVuSans-30"/>
       <use xlink:href="#DejaVuSans-2e" x="63.623047"/>
       <use xlink:href="#DejaVuSans-30" x="95.410156"/>
       <use xlink:href="#DejaVuSans-30" x="159.033203"/>
      </g>
     </g>
    </g>
    <g id="ytick_6">
     <g id="line2d_15">
      <g>
       <use xlink:href="#m353642b3cb" x="57.6" y="144.288992" style="stroke: #000000; stroke-width: 0.8"/>
      </g>
     </g>
     <g id="text_15">
      <!-- 0.25 -->
      <g transform="translate(28.334375 148.088211)scale(0.1 -0.1)">
       <use xlink:href="#DejaVuSans-30"/>
       <use xlink:href="#DejaVuSans-2e" x="63.623047"/>
       <use xlink:href="#DejaVuSans-32" x="95.410156"/>
       <use xlink:href="#DejaVuSans-35" x="159.033203"/>
      </g>
     </g>
    </g>
    <g id="ytick_7">
     <g id="line2d_16">
      <g>
       <use xlink:href="#m353642b3cb" x="57.6" y="114.048658" style="stroke: #000000; stroke-width: 0.8"/>
      </g>
     </g>
     <g id="text_16">
      <!-- 0.50 -->
      <g transform="translate(28.334375 117.847876)scale(0.1 -0.1)">
       <use xlink:href="#DejaVuSans-30"/>
       <use xlink:href="#DejaVuSans-2e" x="63.623047"/>
       <use xlink:href="#DejaVuSans-35" x="95.410156"/>
       <use xlink:href="#DejaVuSans-30" x="159.033203"/>
      </g>
     </g>
    </g>
    <g id="ytick_8">
     <g id="line2d_17">
      <g>
       <use xlink:href="#m353642b3cb" x="57.6" y="83.808323" style="stroke: #000000; stroke-width: 0.8"/>
      </g>
     </g>
     <g id="text_17">
      <!-- 0.75 -->
      <g transform="translate(28.334375 87.607542)scale(0.1 -0.1)">
       <use xlink:href="#DejaVuSans-30"/>
       <use xlink:href="#DejaVuSans-2e" x="63.623047"/>
       <use xlink:href="#DejaVuSans-37" x="95.410156"/>
       <use xlink:href="#DejaVuSans-35" x="159.033203"/>
      </g>
     </g>
    </g>
    <g id="ytick_9">
     <g id="line2d_18">
      <g>
       <use xlink:href="#m353642b3cb" x="57.6" y="53.567988" style="stroke: #000000; stroke-width: 0.8"/>
      </g>
     </g>
     <g id="text_18">
      <!-- 1.00 -->
      <g transform="translate(28.334375 57.367207)scale(0.1 -0.1)">
       <use xlink:href="#DejaVuSans-31"/>
       <use xlink:href="#DejaVuSans-2e" x="63.623047"/>
       <use xlink:href="#DejaVuSans-30" x="95.410156"/>
       <use xlink:href="#DejaVuSans-30" x="159.033203"/>
      </g>
     </g>
    </g>
   </g>
   <g id="line2d_19">
    <path d="M 236.15949 88.996744 
L 252.365284 80.885041 
L 268.409155 73.709 
L 284.130798 67.540323 
L 299.373128 62.440645 
L 313.983848 58.460919 
L 327.816972 55.640911 
L 340.734286 54.008797 
L 352.606722 53.580884 
L 363.315657 54.361447 
L 372.754089 56.342689 
L 380.827712 59.504812 
L 387.455859 63.816222 
L 392.572303 69.233841 
L 396.125921 75.703538 
L 398.081208 83.160669 
L 398.418626 91.530726 
L 397.134805 100.730077 
L 394.242571 110.666806 
L 389.770824 121.241628 
L 383.764243 132.348883 
L 376.282844 143.877592 
L 367.401379 155.712562 
L 357.208588 167.735543 
L 345.806315 179.826406 
L 333.308487 191.864341 
L 319.839978 203.729071 
L 305.535362 215.302047 
L 290.537564 226.467636 
L 274.996439 237.114273 
L 259.067268 247.135583 
L 242.90921 256.431435 
L 226.683711 264.908949 
L 210.552891 272.483419 
L 194.677924 279.079164 
L 179.217427 284.630281 
L 164.325875 289.081307 
L 150.152062 292.387767 
L 136.837607 294.516624 
L 124.515542 295.446608 
L 113.308988 295.168426 
L 103.329915 293.684858 
L 94.678031 291.010728 
L 87.439783 287.172754 
L 81.687493 282.209284 
L 77.478636 276.169912 
L 74.855267 269.11498 
L 73.843595 261.11498 
L 74.45373 252.249845 
L 76.679576 242.608152 
L 80.498892 232.286237 
L 85.873518 221.387235 
L 92.749751 210.020044 
L 101.058887 198.298242 
L 110.717904 186.338948 
L 121.630291 174.261657 
L 133.687017 162.18704 
L 146.767613 150.235743 
L 160.741384 138.52718 
L 175.468707 127.178338 
L 190.802433 116.302612 
L 206.589351 106.008667 
L 222.671724 96.399359 
L 238.888863 87.570699 
L 255.07873 79.610901 
L 271.079563 72.599497 
L 286.731486 66.606542 
L 301.878111 61.691915 
L 316.368096 57.904723 
L 330.056664 55.282805 
L 342.807042 53.852359 
L 354.491833 53.627678 
L 364.994287 54.611006 
L 374.209465 56.792518 
L 382.045295 60.150417 
L 388.423481 64.651152 
L 393.280296 70.249754 
L 396.567211 76.890283 
L 398.251386 84.506389 
L 398.315992 93.021975 
L 396.760384 102.351955 
L 393.600105 112.403107 
L 388.866731 123.075004 
L 382.607557 134.261016 
L 374.885123 145.849375 
L 365.776587 157.724295 
L 355.372961 169.767125 
L 343.778193 181.857538 
L 331.108134 193.874729 
L 317.48938 205.698628 
L 303.058005 217.211093 
L 287.958201 228.297096 
L 272.340843 238.84587 
L 256.361972 248.752013 
L 240.181244 257.916549 
L 223.960332 266.247906 
L 207.861311 273.662842 
L 192.045035 280.087269 
L 176.669537 285.456995 
L 161.888442 289.718369 
L 147.849439 292.828813 
L 134.692801 294.757246 
L 122.549985 295.484402 
L 111.542317 295.003016 
L 101.779783 293.317895 
L 93.359927 290.445879 
L 86.366876 286.415663 
L 80.870504 281.267515 
L 76.925728 275.052875 
L 74.571963 267.833837 
L 73.832727 259.682531 
L 74.715407 250.680402 
L 77.211182 240.917397 
L 81.295117 230.491064 
L 86.926405 219.50558 
L 94.048781 208.070708 
L 102.59108 196.300702 
L 112.46795 184.313163 
L 123.580706 172.227868 
L 135.818311 160.165568 
L 149.058492 148.246786 
L 163.168958 136.59061 
L 178.008721 125.313506 
L 193.429507 114.528149 
L 209.277237 104.342305 
L 225.393566 94.857746 
L 241.617464 86.16924 
L 257.786828 78.363598 
L 273.740098 71.518812 
L 289.317876 65.703273 
L 304.364513 60.975088 
L 318.729667 57.3815 
L 332.269808 54.958414 
L 344.849646 53.730041 
L 356.343488 53.708654 
L 366.636492 54.894468 
L 375.625812 57.275634 
L 383.221631 60.82836 
L 389.348053 65.517148 
L 393.943866 71.29515 
L 396.96315 78.104634 
L 398.375737 85.877561 
L 398.167512 94.536268 
L 396.340557 103.994239 
L 392.913126 114.156973 
L 387.919464 124.922927 
L 381.409467 136.184533 
L 373.44818 147.829267 
L 364.115149 159.740779 
L 353.503628 171.800053 
L 341.719644 183.886598 
L 328.880937 195.879647 
L 315.115788 207.659372 
L 300.561734 219.108071 
L 285.364193 230.111355 
L 269.675016 240.559282 
L 253.650963 250.347459 
L 237.45214 259.378086 
L 221.240402 267.560933 
L 205.177731 274.814238 
L 189.424619 281.06553 
L 174.138466 286.252347 
L 159.472007 290.322865 
L 145.571784 293.236412 
L 132.576684 294.963877 
L 120.616548 295.488 
L 109.810879 294.803544 
L 100.267644 292.917347 
L 92.082196 289.848257 
L 85.33632 285.626938 
L 80.097419 280.295568 
L 76.417839 273.907417 
L 74.334345 266.526313 
L 73.867754 258.226006 
L 75.022728 249.089429 
L 77.787728 239.207872 
L 82.135126 228.680069 
L 88.021484 217.611209 
L 95.387989 206.111889 
L 104.161036 194.297007 
L 114.252967 182.284612 
L 125.562949 170.19473 
L 137.977974 158.148157 
L 151.373997 146.265259 
L 165.617169 134.664767 
L 180.565175 123.462588 
L 196.068662 112.770651 
L 211.972724 102.695787 
L 228.118451 93.338659 
L 244.344522 84.792762 
L 260.48881 77.143483 
L 276.390009 70.467251 
L 291.889237 64.830772 
L 306.831632 60.290366 
L 321.067894 56.891397 
L 334.455779 54.667828 
L 346.861521 53.641876 
L 358.161164 53.82379 
L 368.241807 55.211755 
L 377.002727 57.791901 
L 384.356388 61.538449 
L 390.229315 66.413965 
L 394.562827 72.369733 
L 397.313625 79.346247 
L 398.454224 87.273798 
L 397.973228 96.073178 
L 395.875443 105.656465 
L 392.181828 115.927908 
L 386.92929 126.784876 
L 380.17031 138.118891 
L 371.972421 149.816708 
L 362.417535 161.761444 
L 351.60112 173.833753 
L 339.63125 185.913012 
L 326.627524 197.878529 
L 312.719872 209.610749 
L 298.047254 220.992446 
L 282.756274 231.9099 
L 266.999714 242.254025 
L 250.935009 251.921468 
L 234.722672 260.815634 
L 218.52469 268.847656 
L 202.50291 275.937281 
L 186.817416 282.01367 
L 171.624931 287.016112 
L 157.077254 290.894623 
L 143.319741 293.61045 
L 130.489851 295.136458 
L 118.715778 295.457399 
L 108.115164 294.570067 
L 98.793926 292.483328 
L 90.845199 289.218031 
L 84.348405 284.806803 
L 79.368457 279.293719 
L 75.955113 272.733863 
L 74.142479 265.19278 
L 73.948665 256.745818 
L 75.375607 247.477376 
L 78.409049 237.480061 
L 83.018682 226.853763 
L 89.158446 215.704657 
L 96.766997 204.14414 
L 105.768311 192.287722 
L 116.072451 180.253868 
L 127.576461 168.162817 
L 140.165396 156.135377 
L 153.713473 144.291724 
L 168.085323 132.750194 
L 183.137348 121.626108 
L 198.719153 111.030614 
L 214.675048 101.069577 
L 230.84561 91.842527 
L 247.069266 83.441655 
L 263.183915 75.950901 
L 279.028545 69.445111 
L 294.444841 63.989287 
L 309.27877 59.637942 
L 323.382114 56.434555 
L 336.61396 54.411131 
L 348.842097 53.587888 
L 359.944347 53.973053 
L 369.80978 55.562776 
L 378.339823 58.341173 
L 385.449247 62.280484 
L 391.067017 67.341348 
L 395.137003 73.473199 
L 397.618537 80.61477 
L 398.486827 88.694704 
L 397.733195 97.632269 
L 395.365172 107.338164 
L 391.406419 117.715411 
L 385.896489 128.660323 
L 378.890437 140.063544 
L 370.458265 151.811135 
L 360.684224 163.785719 
L 349.665972 175.86765 
L 337.513602 187.936208 
L 324.348534 199.87081 
L 310.302311 211.552207 
L 295.515277 222.863685 
L 280.13518 233.692221 
L 264.315693 243.929621 
L 248.214877 253.473597 
L 231.993609 262.228787 
L 215.813964 270.107714 
L 199.837606 277.031652 
L 184.224163 282.931422 
L 169.129641 287.748073 
L 154.704859 291.433481 
L 141.093945 293.95082 
L 128.432895 295.27494 
L 116.848213 295.392609 
L 106.45565 294.302652 
L 97.359045 292.01596 
L 89.649287 288.55538 
L 83.403412 283.95549 
L 78.683825 278.262249 
L 75.537682 271.532544 
L 73.996419 263.833614 
L 74.075437 255.242385 
L 75.773944 245.844699 
L 79.074971 235.734452 
L 83.945535 225.012665 
L 90.33697 213.786464 
L 98.185415 202.168019 
L 107.412452 190.273417 
L 117.925887 178.221506 
L 129.620672 166.132704 
L 142.379959 154.127798 
L 156.076259 142.326737 
L 170.572725 130.847434 
L 185.724512 119.804586 
L 201.380228 109.308529 
L 217.383448 99.464137 
L 233.574271 90.369772 
L 249.790925 82.116301 
L 265.871378 74.786191 
L 281.65496 68.452681 
L 296.983966 63.179053 
L 311.705235 59.018001 
L 325.671675 56.0111 
L 338.743739 54.188394 
L 350.790815 53.568095 
L 361.692532 54.1564 
L 371.339965 55.947432 
L 379.63672 58.923295 
L 386.499897 63.054255 
L 391.860923 68.299037 
L 395.666231 74.605237 
L 397.877801 81.909846 
L 398.473535 90.139878 
L 397.44748 99.213101 
L 394.80989 109.038859 
L 390.587117 119.518976 
L 384.821354 130.548739 
L 377.570211 142.017941 
L 368.906139 153.811986 
L 358.915706 165.813032 
L 347.698734 177.901168 
L 335.367298 189.955614 
L 322.044611 201.855926 
L 307.863788 213.483199 
L 292.966519 224.721258 
L 277.501653 235.457816 
L 261.623711 245.585596 
L 245.491338 255.003406 
L 229.265724 263.617145 
L 213.10899 271.340748 
L 197.18257 278.097044 
L 181.645594 283.818525 
L 166.653303 288.448025 
L 152.355494 291.939286 
L 138.895028 294.257427 
L 126.406396 295.379283 
L 115.01438 295.293647 
L 104.832807 294.001374 
L 95.963406 291.515375 
L 88.494798 287.86049 
L 82.501607 283.073238 
L 78.043714 277.201451 
L 75.165663 270.303799 
L 73.896208 262.449199 
L 74.248034 253.716133 
L 76.217627 244.191858 
L 79.785305 233.971539 
L 84.915423 223.157293 
L 91.556721 211.857172 
L 99.642842 200.184083 
L 109.092993 188.254661 
L 119.81275 176.1881 
L 131.695005 164.104965 
L 144.621035 152.125986 
L 158.461687 140.370855 
L 173.078669 128.957023 
L 188.325934 117.998535 
L 204.051137 107.604884 
L 220.097155 97.87992 
L 236.303663 88.920812 
L 252.50873 80.817075 
L 268.550442 73.64968 
L 284.268513 67.490242 
L 299.505895 62.400302 
L 314.110341 58.430719 
L 327.935927 55.621154 
L 340.844514 53.999681 
L 352.707123 53.5825 
L 363.405226 54.37378 
L 372.831932 56.365614 
L 380.893052 59.538101 
L 387.508042 63.859542 
L 392.610807 69.28676 
L 396.150363 75.765526 
L 398.091342 83.231107 
L 398.414352 91.608911 
L 397.116165 100.815227 
L 394.209753 110.75807 
L 389.724154 121.338095 
L 383.704188 132.449589 
L 376.210004 143.98153 
L 367.316481 155.818694 
L 357.112482 167.842809 
L 345.69996 179.933733 
L 333.192946 191.970658 
L 319.716405 203.833315 
L 305.404992 215.403177 
L 290.4017 226.56464 
L 274.856438 237.206184 
L 258.924529 247.221481 
L 242.765159 256.510462 
L 226.539788 264.980315 
L 210.410533 272.546412 
L 194.538554 279.133154 
L 179.082437 284.674729 
L 164.196615 289.115768 
L 150.029823 292.411897 
L 136.72361 294.530183 
L 124.410927 295.449459 
L 113.214798 295.160542 
L 103.247093 293.666317 
L 94.607404 290.981715 
L 87.382057 287.133559 
L 81.643245 282.160299 
L 77.448308 276.111626 
L 74.839161 269.047976 
L 73.841873 261.039926 
L 74.466409 252.167492 
L 76.706529 242.519323 
L 80.53985 232.19182 
L 85.928071 221.288172 
L 92.817355 209.917326 
L 101.138866 198.192895 
L 110.809459 186.232024 
L 121.732508 174.154225 
L 133.798873 162.080173 
L 146.887991 150.130509 
L 160.869081 138.42463 
L 175.602448 127.079498 
L 190.940881 116.208468 
L 206.731123 105.920161 
L 222.815404 96.317374 
L 239.033014 87.496055 
L 255.221913 79.544344 
L 271.220347 72.541691 
L 286.868464 66.558065 
L 302.009914 61.653253 
L 316.493408 57.87626 
L 330.174232 55.264827 
L 342.915692 53.845045 
L 354.59048 53.6311 
L 365.081944 54.625131 
L 374.285257 56.817204 
L 382.108464 60.185419 
L 388.473396 64.69612 
L 393.316459 70.304237 
L 396.58926 76.953738 
L 398.259101 84.578182 
L 398.309296 93.101387 
L 396.739344 102.438194 
L 393.56493 112.495312 
L 388.817774 123.172253 
L 382.545307 134.362336 
L 374.810201 145.953755 
L 365.689742 157.830692 
L 355.275061 169.874476 
L 343.670216 181.96477 
L 330.991159 193.980771 
L 317.364576 205.80242 
L 302.926618 217.311599 
L 287.821545 228.393311 
L 272.200282 238.936832 
L 256.218911 248.836814 
L 240.037114 257.994341 
L 223.816572 266.317913 
L 207.719357 273.724363 
L 191.906306 280.13969 
L 176.535418 285.499793 
L 161.760274 289.751115 
L 147.728503 292.85118 
L 134.580305 294.769011 
L 122.447052 295.485448 
L 111.449977 294.993331 
L 101.698957 293.297577 
L 93.291423 290.415131 
L 86.31138 286.374791 
L 80.828569 281.216929 
L 76.897774 274.99308 
L 74.558268 267.76543 
L 73.833429 259.606195 
L 74.730499 250.596901 
L 77.240513 240.827564 
L 81.338393 230.395798 
L 86.983195 219.405832 
L 94.118516 207.967475 
L 102.673065 196.195015 
L 112.561365 184.206079 
L 123.684617 172.120456 
L 135.931681 160.058901 
L 149.180188 148.14193 
L 163.297763 136.488614 
L 178.143349 125.215387 
L 193.568612 114.434889 
L 209.41943 104.254835 
L 225.537426 94.77694 
L 241.761553 86.095905 
L 257.929707 78.298468 
L 273.88034 71.462537 
L 289.454079 65.656415 
L 304.495315 60.938116 
L 318.853763 57.354783 
L 332.385957 54.942219 
L 344.956688 53.724529 
L 356.440353 53.713882 
L 366.722212 54.910382 
L 375.699531 57.302075 
L 383.282612 60.865064 
L 389.395687 65.563749 
L 393.977677 71.351182 
L 396.9828 78.169537 
L 398.38103 85.950687 
L 398.158395 94.616886 
L 396.317121 104.081543 
L 392.875605 114.250092 
L 387.868234 125.02093 
L 381.345038 136.28644 
L 373.371197 147.93406 
L 364.026382 159.847411 
L 353.403963 171.90746 
L 341.610076 183.993705 
L 328.762561 195.985385 
L 314.989787 207.762683 
L 300.429367 219.207925 
L 285.226784 230.206752 
L 269.533936 240.64927 
L 253.507622 250.431138 
L 237.307972 259.454621 
L 221.096845 267.629559 
L 205.03622 274.87427 
L 189.286569 281.116367 
L 174.005256 286.293482 
L 159.344967 290.353886 
L 145.452184 293.257009 
L 132.465719 294.973845 
L 120.515327 295.487239 
L 109.720413 294.792062 
L 100.188837 292.895259 
L 92.015835 289.815782 
L 85.283069 285.584402 
L 80.057809 280.243396 
L 76.392267 273.84613 
L 74.323065 266.456523 
L 73.87088 258.14841 
L 75.040229 249.004803 
L 77.819428 239.117062 
L 82.180708 228.583981 
L 88.080494 217.510804 
L 95.459836 206.00817 
L 104.245003 194.191011 
L 114.348215 182.177398 
L 125.668526 170.087368 
L 138.092826 158.04172 
L 151.496975 146.160812 
L 165.747044 134.563352 
L 180.700652 123.365219 
L 196.208385 112.678301 
L 212.115297 102.609378 
L 228.26245 93.259055 
L 244.488508 84.720758 
L 260.631345 77.079798 
L 276.529668 70.412522 
L 292.024625 64.785547 
L 306.961396 60.255095 
L 321.190738 56.866434 
L 334.570476 54.653421 
L 346.966923 53.638169 
L 358.25622 53.830821 
L 368.325566 55.229453 
L 377.074353 57.820089 
L 384.415164 61.576846 
L 390.274655 66.462187 
L 394.594277 72.427299 
L 397.330871 79.41258 
L 398.457094 87.348237 
L 397.961693 96.154978 
L 395.849618 105.74481 
L 392.141972 116.021914 
L 386.875801 126.883605 
L 380.103722 138.221356 
L 371.8934 149.921884 
L 362.32687 161.868282 
L 351.499716 173.941184 
L 339.520122 186.019964 
L 326.507782 197.983932 
L 312.592712 209.71355 
L 297.913946 221.091619 
L 282.61815 232.004453 
L 266.858155 242.343014 
L 250.791428 252.004003 
L 234.578505 260.890891 
L 218.381378 268.914883 
L 202.361884 275.995806 
L 186.680084 282.062909 
L 171.492666 287.055572 
L 156.951378 290.92391 
L 143.201511 293.629271 
L 130.38045 295.144626 
L 118.616298 295.454832 
L 108.026598 294.556791 
L 98.71716 292.459475 
L 90.781 289.183839 
L 84.297414 284.762614 
L 79.331184 279.239975 
L 75.93193 272.671101 
L 74.133618 265.121627 
L 73.954214 256.666984 
L 75.395511 247.391649 
L 78.443109 237.388298 
L 83.066558 226.756881 
L 89.21966 215.603624 
L 96.840936 204.039966 
L 105.854237 192.181447 
L 116.169505 180.146554 
L 127.683674 168.055536 
L 140.281697 156.029201 
L 153.837699 144.187714 
L 168.216233 132.64939 
L 183.273634 121.529516 
L 198.859453 110.939199 
L 214.817962 100.984254 
L 230.989708 91.764147 
L 247.213108 83.371002 
L 263.326065 75.888681 
L 279.167582 69.391944 
L 294.579377 63.945706 
L 309.407459 59.604383 
L 323.503672 56.411351 
L 336.727171 54.398516 
L 348.945831 53.585987 
L 360.037566 53.981885 
L 369.891553 55.582253 
L 378.409334 58.371101 
L 385.505801 62.320563 
L 391.110049 67.391178 
L 395.166082 73.532282 
L 397.633374 80.682515 
L 398.487273 88.770435 
L 397.719246 97.715229 
L 395.336967 107.427524 
L 391.364239 117.810278 
L 385.840757 128.75975 
L 378.821709 140.166537 
L 370.377227 151.916665 
L 360.591686 163.892732 
L 349.56286 175.975075 
L 337.400945 188.042974 
L 324.227458 199.975848 
L 310.174026 211.65447 
L 295.381065 222.962149 
L 279.996381 233.785903 
L 264.173694 244.017585 
L 248.071098 253.554964 
L 231.849485 262.302744 
L 215.670936 270.173522 
L 199.697102 277.088654 
L 184.087589 282.979048 
L 168.99836 287.785847 
L 154.580183 291.461025 
L 140.97712 293.967861 
L 128.325088 295.281305 
L 116.750501 295.388236 
L 106.369009 294.287585 
L 97.284341 291.990349 
L 89.587268 288.519481 
L 83.354696 283.909661 
L 78.648898 278.206949 
L 75.516895 271.468324 
L 73.989979 263.761117 
L 74.083407 255.162335 
L 75.796246 245.757895 
L 79.111382 235.641763 
L 83.99569 224.915016 
L 90.400369 213.684831 
L 98.261425 202.063418 
L 107.500312 190.166893 
L 118.02472 178.114122 
L 129.729491 166.025534 
L 142.497675 154.021912 
L 156.201698 142.223194 
L 170.704632 130.747268 
L 185.861569 119.708798 
L 201.521067 109.218077 
L 217.52666 99.379924 
L 233.718427 90.292639 
L 249.934583 82.047019 
L 266.013104 74.725452 
L 281.793337 68.401092 
L 297.117612 63.13713 
L 311.832813 58.986162 
L 325.791912 55.989664 
L 338.855433 54.177574 
L 350.89285 53.568 
L 361.783889 54.167031 
L 371.419731 55.968683 
L 379.704097 58.954953 
L 386.554213 63.096004 
L 391.901635 68.35046 
L 395.692932 74.66582 
L 397.890225 81.978983 
L 398.471557 90.216879 
L 397.43112 99.297197 
L 394.779311 109.129209 
L 390.542625 119.614678 
L 384.763394 130.648836 
L 377.499361 142.121433 
L 368.823108 153.917839 
L 358.821323 165.920189 
L 347.593942 178.008558 
L 335.253144 190.062163 
L 321.922236 201.96057 
L 307.734414 213.584893 
L 292.83144 224.818985 
L 277.362218 235.5506 
L 261.481312 245.672511 
L 245.347399 255.083582 
L 229.121684 263.689782 
L 212.966287 271.40512 
L 197.04263 278.152507 
L 181.509815 283.864525 
L 166.523042 288.484103 
L 152.232053 291.965082 
L 138.77964 294.272681 
L 126.300213 295.383845 
L 114.918464 295.28747 
L 104.748116 293.98452 
L 95.890786 291.488013 
L 88.434975 287.822893 
L 82.455179 283.025782 
L 78.011145 277.14461 
L 75.147277 270.23814 
L 73.89219 262.375379 
L 74.258424 253.634889 
L 76.242321 244.104003 
L 79.824056 233.87795 
L 84.967844 223.058905 
L 91.622288 211.754968 
L 99.720901 200.079085 
L 109.182763 188.147917 
L 119.913334 176.080677 
L 131.805398 163.997936 
L 144.740134 152.020421 
L 158.588302 140.267808 
L 173.211536 128.857525 
L 188.463725 117.903579 
L 204.192474 107.515419 
L 220.240627 97.79684 
L 236.447836 88.844947 
L 252.652164 80.749183 
L 268.691702 73.59044 
L 284.40619 67.440244 
L 299.638612 62.360048 
L 314.236772 58.400609 
L 328.05481 55.601491 
L 340.95466 53.99066 
L 352.807431 53.584212 
L 363.494695 54.386207 
L 372.909667 56.388633 
L 380.958277 59.571481 
L 387.560105 63.90295 
L 392.649188 69.339761 
L 396.174678 75.827592 
L 398.101349 83.301618 
L 398.409951 91.687161 
L 397.097399 100.900435 
L 394.176809 110.849385 
L 389.677363 121.434604 
L 383.644016 132.550328 
L 376.137053 144.085492 
L 367.23148 155.924841 
L 357.01628 167.95008 
L 345.593518 180.041056 
L 333.077327 192.076961 
L 319.592766 203.937536 
L 305.274567 215.504274 
L 290.265793 226.661604 
L 274.716406 237.298045 
L 258.781772 247.307322 
L 242.621103 256.589425 
L 226.395872 265.051611 
L 210.268196 272.609328 
L 194.399217 279.187062 
L 178.947493 284.719091 
L 164.067412 289.15014 
L 149.907652 292.435935 
L 136.609691 294.543647 
L 124.306399 295.452216 
L 113.120706 295.152562 
L 103.164376 293.647682 
L 94.536889 290.95261 
L 87.324449 287.094275 
L 81.599119 282.111229 
L 77.418105 276.053259 
L 74.823182 268.980896 
L 73.840279 260.964805 
L 74.479215 252.085078 
L 76.733608 242.43044 
L 80.580931 232.097357 
L 85.982743 221.189073 
L 92.885072 209.81458 
L 101.218952 198.087528 
L 110.901113 186.125091 
L 121.834814 174.046793 
L 133.91081 161.973316 
L 147.00844 150.025294 
L 160.996839 138.322109 
L 175.736237 126.980695 
L 191.079365 116.11437 
L 206.872919 105.831708 
L 222.959094 96.235451 
L 239.177164 87.42148 
L 255.365081 79.477861 
L 271.361103 72.483966 
L 287.005402 66.509674 
L 302.141666 61.614679 
L 316.618657 57.847889 
L 330.291727 55.246942 
L 343.024259 53.837825 
L 354.689033 53.634618 
L 365.169499 54.63935 
L 374.36094 56.841984 
L 382.171518 60.220511 
L 388.523191 64.741173 
L 393.352498 70.358803 
L 396.611183 77.01727 
L 398.266688 84.650045 
L 398.302472 93.180864 
L 396.718176 102.52449 
L 393.529632 112.587565 
L 388.768697 123.269542 
L 382.482941 134.463689 
L 374.735169 146.058159 
L 365.602795 157.937103 
L 355.177067 169.981831 
L 343.562154 182.071997 
L 330.874109 194.086798 
L 317.239707 205.906188 
L 302.795178 217.41207 
L 287.684848 228.489483 
L 272.059693 239.027743 
L 256.075835 248.921556 
L 239.89298 258.072067 
L 223.672821 266.387847 
L 207.577425 273.785806 
L 191.767611 280.192028 
L 176.401346 285.542502 
L 161.632165 289.78377 
L 147.607636 292.873454 
L 134.467888 294.780682 
L 122.344209 295.486398 
L 111.357734 294.983551 
L 101.618238 293.277166 
L 93.223033 290.384291 
L 86.256002 286.333832 
L 80.786757 281.166259 
L 76.869945 274.933205 
L 74.544701 267.696949 
L 73.834259 259.529793 
L 74.745718 250.51334 
L 77.269969 240.73768 
L 81.381792 230.300488 
L 87.040102 219.306049 
L 94.188364 207.864216 
L 102.755155 196.089311 
L 112.654877 184.098987 
L 123.788617 172.013045 
L 136.045129 159.952246 
L 149.301952 148.037095 
L 163.426625 136.386647 
L 178.278022 125.117307 
L 193.707751 114.341676 
L 209.561644 104.16742 
L 225.681294 94.696197 
L 241.905638 86.022641 
L 258.072569 78.233413 
L 274.020552 71.406343 
L 289.590239 65.609644 
L 304.626064 60.901234 
L 318.977793 57.328158 
L 332.50203 54.926118 
L 345.063644 53.719113 
L 356.537123 53.719204 
L 366.807829 54.92639 
L 375.77314 57.328609 
L 383.343477 60.901859 
L 389.443201 65.610437 
L 394.011364 71.407296 
L 397.002324 78.234517 
L 398.386195 86.023883 
L 398.149151 94.697567 
L 396.293559 104.168903 
L 392.837961 114.343258 
L 387.816884 125.118971 
L 381.280495 136.388377 
L 373.294106 148.038874 
L 363.937513 159.954056 
L 353.304204 172.014868 
L 341.500424 184.100804 
L 328.644112 196.091105 
L 314.863725 207.865968 
L 300.29695 219.307743 
L 285.089336 230.302106 
L 269.39283 240.739206 
L 253.364268 250.514758 
L 237.163802 259.53109 
L 220.9533 267.698112 
L 204.894734 274.934222 
L 189.148555 281.16712 
L 173.872094 286.334528 
L 159.217988 290.384815 
L 145.332656 293.277513 
L 132.354836 294.983718 
L 120.414197 295.486383 
L 109.630047 294.780485 
L 100.110138 292.873076 
L 91.949588 289.783217 
L 85.229937 285.541778 
L 80.018323 280.19114 
L 76.36682 273.784764 
L 74.311913 266.38666 
L 73.874134 258.070749 
L 75.057856 248.920119 
L 77.851252 239.026201 
L 82.226412 228.487851 
L 88.139621 217.410366 
L 95.531795 205.904427 
L 104.329074 194.084999 
L 114.443559 182.070177 
L 125.77419 169.980009 
L 138.207754 157.935297 
L 151.62002 146.056387 
L 165.876976 134.461968 
L 180.836171 123.26789 
L 196.348139 112.585999 
L 212.257889 102.523026 
L 228.406456 93.179515 
L 244.632488 84.648825 
L 260.773861 77.016191 
L 276.669295 70.357876 
L 292.159969 64.740408 
L 307.091105 60.219914 
L 321.313515 56.841563 
L 334.685094 54.639108 
L 347.072238 53.634557 
L 358.351179 53.837947 
L 368.409221 55.247245 
L 377.145867 57.84837 
L 384.473823 61.615333 
L 390.319872 66.510494 
L 394.625602 72.484945 
L 397.34799 79.478989 
L 398.459836 87.422745 
L 397.950031 96.236841 
L 395.823668 105.833209 
L 392.101994 116.115967 
L 386.822193 126.982371 
L 380.037021 138.323849 
L 371.814272 150.02708 
L 362.236105 161.975129 
L 351.398222 174.048616 
L 339.408912 186.126906 
L 326.387968 198.089317 
L 312.46549 209.816324 
L 297.780589 221.190755 
L 282.47999 232.09896 
L 266.716571 242.431949 
L 250.647837 252.086477 
L 234.434339 260.96608 
L 218.238079 268.982035 
L 202.220883 276.054251 
L 186.542791 282.112062 
L 171.360453 287.094943 
L 156.825565 290.953105 
L 143.083355 293.647999 
L 130.271132 295.152699 
L 118.51691 295.45217 
L 107.938133 294.543419 
L 98.640502 292.435528 
L 90.716916 289.149557 
L 84.246543 284.718339 
L 79.294035 279.186148 
L 75.908874 272.608261 
L 74.124884 265.050401 
L 73.959891 256.588085 
L 75.415542 247.305865 
L 78.477294 237.296486 
L 83.114554 226.659958 
L 89.280989 215.502559 
L 96.914985 203.935768 
L 105.940266 192.075157 
L 116.266654 180.039235 
L 127.790972 167.948259 
L 140.398073 155.92304 
L 140.398073 155.92304 
" clip-path="url(#p850c498504)" style="fill: none; stroke: #1f77b4; stroke-width: 1.5; stroke-linecap: square"/>
   </g>
   <g id="patch_3">
    <path d="M 57.6 307.584 
L 57.6 41.472 
" style="fill: none; stroke: #000000; stroke-width: 0.8; stroke-linejoin: miter; stroke-linecap: square"/>
   </g>
   <g id="patch_4">
    <path d="M 414.72 307.584 
L 414.72 41.472 
" style="fill: none; stroke: #000000; stroke-width: 0.8; stroke-linejoin: miter; stroke-linecap: square"/>
   </g>
   <g id="patch_5">
    <path d="M 57.6 307.584 
L 414.72 307.584 
" style="fill: none; stroke: #000000; stroke-width: 0.8; stroke-linejoin: miter; stroke-linecap: square"/>
   </g>
   <g id="patch_6">
    <path d="M 57.6 41.472 
L 414.72 41.472 
" style="fill: none; stroke: #000000; stroke-width: 0.8; stroke-linejoin: miter; stroke-linecap: square"/>
   </g>
  </g>
 </g>
 <defs>
  <clipPath id="p850c498504">
   <rect x="57.6" y="41.472" width="357.12" height="266.112"/>
  </clipPath>
 </defs>
</svg>
