<?xml version="1.0" encoding="utf-8" standalone="no"?>
<!DOCTYPE svg PUBLIC "-//W3C//DTD SVG 1.1//EN"
  "http://www.w3.org/Graphics/SVG/1.1/DTD/svg11.dtd">
<svg xmlns:xlink="http://www.w3.org/1999/xlink" width="460.8pt" height="345.6pt" viewBox="0 0 460.8 345.6" xmlns="http://www.w3.org/2000/svg" version="1.1">
 <metadata>
  <rdf:RDF xmlns:dc="http://purl.org/dc/elements/1.1/" xmlns:cc="http://creativecommons.org/ns#" xmlns:rdf="http://www.w3.org/1999/02/22-rdf-syntax-ns#">
   <cc:Work>
    <dc:type rdf:resource="http://purl.org/dc/dcmitype/StillImage"/>
    <dc:date>2022-04-30T23:59:09.358509</dc:date>
    <dc:format>image/svg+xml</dc:format>
    <dc:creator>
     <cc:Agent>
      <dc:title>Matplotlib v3.5.1, https://matplotlib.org/</dc:title>
     </cc:Agent>
    </dc:creator>
   </cc:Work>
  </rdf:RDF>
 </metadata>
 <defs>
  <style type="text/css">*{stroke-linejoin: round; stroke-linecap: butt}</style>
 </defs>
 <g id="figure_1">
  <g id="patch_1">
   <path d="M 0 345.6 
L 460.8 345.6 
L 460.8 0 
L 0 0 
z
" style="fill: #ffffff"/>
  </g>
  <g id="axes_1">
   <g id="patch_2">
    <path d="M 57.6 307.584 
L 414.72 307.584 
L 414.72 41.472 
L 57.6 41.472 
z
" style="fill: #ffffff"/>
   </g>
   <g id="matplotlib.axis_1">
    <g id="xtick_1">
     <g id="line2d_1">
      <defs>
       <path id="m1bc5d92060" d="M 0 0 
L 0 3.5 
" style="stroke: #000000; stroke-width: 0.8"/>
      </defs>
      <g>
       <use xlink:href="#m1bc5d92060" x="73.831138" y="307.584" style="stroke: #000000; stroke-width: 0.8"/>
      </g>
     </g>
     <g id="text_1">
      <!-- −1.00 -->
      <g transform="translate(58.508481 322.182437)scale(0.1 -0.1)">
       <defs>
        <path id="DejaVuSans-2212" d="M 678 2272 
L 4684 2272 
L 4684 1741 
L 678 1741 
L 678 2272 
z
" transform="scale(0.015625)"/>
        <path id="DejaVuSans-31" d="M 794 531 
L 1825 531 
L 1825 4091 
L 703 3866 
L 703 4441 
L 1819 4666 
L 2450 4666 
L 2450 531 
L 3481 531 
L 3481 0 
L 794 0 
L 794 531 
z
" transform="scale(0.015625)"/>
        <path id="DejaVuSans-2e" d="M 684 794 
L 1344 794 
L 1344 0 
L 684 0 
L 684 794 
z
" transform="scale(0.015625)"/>
        <path id="DejaVuSans-30" d="M 2034 4250 
Q 1547 4250 1301 3770 
Q 1056 3291 1056 2328 
Q 1056 1369 1301 889 
Q 1547 409 2034 409 
Q 2525 409 2770 889 
Q 3016 1369 3016 2328 
Q 3016 3291 2770 3770 
Q 2525 4250 2034 4250 
z
M 2034 4750 
Q 2819 4750 3233 4129 
Q 3647 3509 3647 2328 
Q 3647 1150 3233 529 
Q 2819 -91 2034 -91 
Q 1250 -91 836 529 
Q 422 1150 422 2328 
Q 422 3509 836 4129 
Q 1250 4750 2034 4750 
z
" transform="scale(0.015625)"/>
       </defs>
       <use xlink:href="#DejaVuSans-2212"/>
       <use xlink:href="#DejaVuSans-31" x="83.789062"/>
       <use xlink:href="#DejaVuSans-2e" x="147.412109"/>
       <use xlink:href="#DejaVuSans-30" x="179.199219"/>
       <use xlink:href="#DejaVuSans-30" x="242.822266"/>
      </g>
     </g>
    </g>
    <g id="xtick_2">
     <g id="line2d_2">
      <g>
       <use xlink:href="#m1bc5d92060" x="114.413252" y="307.584" style="stroke: #000000; stroke-width: 0.8"/>
      </g>
     </g>
     <g id="text_2">
      <!-- −0.75 -->
      <g transform="translate(99.090595 322.182437)scale(0.1 -0.1)">
       <defs>
        <path id="DejaVuSans-37" d="M 525 4666 
L 3525 4666 
L 3525 4397 
L 1831 0 
L 1172 0 
L 2766 4134 
L 525 4134 
L 525 4666 
z
" transform="scale(0.015625)"/>
        <path id="DejaVuSans-35" d="M 691 4666 
L 3169 4666 
L 3169 4134 
L 1269 4134 
L 1269 2991 
Q 1406 3038 1543 3061 
Q 1681 3084 1819 3084 
Q 2600 3084 3056 2656 
Q 3513 2228 3513 1497 
Q 3513 744 3044 326 
Q 2575 -91 1722 -91 
Q 1428 -91 1123 -41 
Q 819 9 494 109 
L 494 744 
Q 775 591 1075 516 
Q 1375 441 1709 441 
Q 2250 441 2565 725 
Q 2881 1009 2881 1497 
Q 2881 1984 2565 2268 
Q 2250 2553 1709 2553 
Q 1456 2553 1204 2497 
Q 953 2441 691 2322 
L 691 4666 
z
" transform="scale(0.015625)"/>
       </defs>
       <use xlink:href="#DejaVuSans-2212"/>
       <use xlink:href="#DejaVuSans-30" x="83.789062"/>
       <use xlink:href="#DejaVuSans-2e" x="147.412109"/>
       <use xlink:href="#DejaVuSans-37" x="179.199219"/>
       <use xlink:href="#DejaVuSans-35" x="242.822266"/>
      </g>
     </g>
    </g>
    <g id="xtick_3">
     <g id="line2d_3">
      <g>
       <use xlink:href="#m1bc5d92060" x="154.995365" y="307.584" style="stroke: #000000; stroke-width: 0.8"/>
      </g>
     </g>
     <g id="text_3">
      <!-- −0.50 -->
      <g transform="translate(139.672709 322.182437)scale(0.1 -0.1)">
       <use xlink:href="#DejaVuSans-2212"/>
       <use xlink:href="#DejaVuSans-30" x="83.789062"/>
       <use xlink:href="#DejaVuSans-2e" x="147.412109"/>
       <use xlink:href="#DejaVuSans-35" x="179.199219"/>
       <use xlink:href="#DejaVuSans-30" x="242.822266"/>
      </g>
     </g>
    </g>
    <g id="xtick_4">
     <g id="line2d_4">
      <g>
       <use xlink:href="#m1bc5d92060" x="195.577479" y="307.584" style="stroke: #000000; stroke-width: 0.8"/>
      </g>
     </g>
     <g id="text_4">
      <!-- −0.25 -->
      <g transform="translate(180.254823 322.182437)scale(0.1 -0.1)">
       <defs>
        <path id="DejaVuSans-32" d="M 1228 531 
L 3431 531 
L 3431 0 
L 469 0 
L 469 531 
Q 828 903 1448 1529 
Q 2069 2156 2228 2338 
Q 2531 2678 2651 2914 
Q 2772 3150 2772 3378 
Q 2772 3750 2511 3984 
Q 2250 4219 1831 4219 
Q 1534 4219 1204 4116 
Q 875 4013 500 3803 
L 500 4441 
Q 881 4594 1212 4672 
Q 1544 4750 1819 4750 
Q 2544 4750 2975 4387 
Q 3406 4025 3406 3419 
Q 3406 3131 3298 2873 
Q 3191 2616 2906 2266 
Q 2828 2175 2409 1742 
Q 1991 1309 1228 531 
z
" transform="scale(0.015625)"/>
       </defs>
       <use xlink:href="#DejaVuSans-2212"/>
       <use xlink:href="#DejaVuSans-30" x="83.789062"/>
       <use xlink:href="#DejaVuSans-2e" x="147.412109"/>
       <use xlink:href="#DejaVuSans-32" x="179.199219"/>
       <use xlink:href="#DejaVuSans-35" x="242.822266"/>
      </g>
     </g>
    </g>
    <g id="xtick_5">
     <g id="line2d_5">
      <g>
       <use xlink:href="#m1bc5d92060" x="236.159593" y="307.584" style="stroke: #000000; stroke-width: 0.8"/>
      </g>
     </g>
     <g id="text_5">
      <!-- 0.00 -->
      <g transform="translate(225.026781 322.182437)scale(0.1 -0.1)">
       <use xlink:href="#DejaVuSans-30"/>
       <use xlink:href="#DejaVuSans-2e" x="63.623047"/>
       <use xlink:href="#DejaVuSans-30" x="95.410156"/>
       <use xlink:href="#DejaVuSans-30" x="159.033203"/>
      </g>
     </g>
    </g>
    <g id="xtick_6">
     <g id="line2d_6">
      <g>
       <use xlink:href="#m1bc5d92060" x="276.741707" y="307.584" style="stroke: #000000; stroke-width: 0.8"/>
      </g>
     </g>
     <g id="text_6">
      <!-- 0.25 -->
      <g transform="translate(265.608895 322.182437)scale(0.1 -0.1)">
       <use xlink:href="#DejaVuSans-30"/>
       <use xlink:href="#DejaVuSans-2e" x="63.623047"/>
       <use xlink:href="#DejaVuSans-32" x="95.410156"/>
       <use xlink:href="#DejaVuSans-35" x="159.033203"/>
      </g>
     </g>
    </g>
    <g id="xtick_7">
     <g id="line2d_7">
      <g>
       <use xlink:href="#m1bc5d92060" x="317.323821" y="307.584" style="stroke: #000000; stroke-width: 0.8"/>
      </g>
     </g>
     <g id="text_7">
      <!-- 0.50 -->
      <g transform="translate(306.191009 322.182437)scale(0.1 -0.1)">
       <use xlink:href="#DejaVuSans-30"/>
       <use xlink:href="#DejaVuSans-2e" x="63.623047"/>
       <use xlink:href="#DejaVuSans-35" x="95.410156"/>
       <use xlink:href="#DejaVuSans-30" x="159.033203"/>
      </g>
     </g>
    </g>
    <g id="xtick_8">
     <g id="line2d_8">
      <g>
       <use xlink:href="#m1bc5d92060" x="357.905935" y="307.584" style="stroke: #000000; stroke-width: 0.8"/>
      </g>
     </g>
     <g id="text_8">
      <!-- 0.75 -->
      <g transform="translate(346.773123 322.182437)scale(0.1 -0.1)">
       <use xlink:href="#DejaVuSans-30"/>
       <use xlink:href="#DejaVuSans-2e" x="63.623047"/>
       <use xlink:href="#DejaVuSans-37" x="95.410156"/>
       <use xlink:href="#DejaVuSans-35" x="159.033203"/>
      </g>
     </g>
    </g>
    <g id="xtick_9">
     <g id="line2d_9">
      <g>
       <use xlink:href="#m1bc5d92060" x="398.488049" y="307.584" style="stroke: #000000; stroke-width: 0.8"/>
      </g>
     </g>
     <g id="text_9">
      <!-- 1.00 -->
      <g transform="translate(387.355237 322.182437)scale(0.1 -0.1)">
       <use xlink:href="#DejaVuSans-31"/>
       <use xlink:href="#DejaVuSans-2e" x="63.623047"/>
       <use xlink:href="#DejaVuSans-30" x="95.410156"/>
       <use xlink:href="#DejaVuSans-30" x="159.033203"/>
      </g>
     </g>
    </g>
   </g>
   <g id="matplotlib.axis_2">
    <g id="ytick_1">
     <g id="line2d_10">
      <defs>
       <path id="m858171634e" d="M 0 0 
L -3.5 0 
" style="stroke: #000000; stroke-width: 0.8"/>
      </defs>
      <g>
       <use xlink:href="#m858171634e" x="57.6" y="295.489185" style="stroke: #000000; stroke-width: 0.8"/>
      </g>
     </g>
     <g id="text_10">
      <!-- −1.00 -->
      <g transform="translate(19.954687 299.288403)scale(0.1 -0.1)">
       <use xlink:href="#DejaVuSans-2212"/>
       <use xlink:href="#DejaVuSans-31" x="83.789062"/>
       <use xlink:href="#DejaVuSans-2e" x="147.412109"/>
       <use xlink:href="#DejaVuSans-30" x="179.199219"/>
       <use xlink:href="#DejaVuSans-30" x="242.822266"/>
      </g>
     </g>
    </g>
    <g id="ytick_2">
     <g id="line2d_11">
      <g>
       <use xlink:href="#m858171634e" x="57.6" y="265.248983" style="stroke: #000000; stroke-width: 0.8"/>
      </g>
     </g>
     <g id="text_11">
      <!-- −0.75 -->
      <g transform="translate(19.954687 269.048202)scale(0.1 -0.1)">
       <use xlink:href="#DejaVuSans-2212"/>
       <use xlink:href="#DejaVuSans-30" x="83.789062"/>
       <use xlink:href="#DejaVuSans-2e" x="147.412109"/>
       <use xlink:href="#DejaVuSans-37" x="179.199219"/>
       <use xlink:href="#DejaVuSans-35" x="242.822266"/>
      </g>
     </g>
    </g>
    <g id="ytick_3">
     <g id="line2d_12">
      <g>
       <use xlink:href="#m858171634e" x="57.6" y="235.008782" style="stroke: #000000; stroke-width: 0.8"/>
      </g>
     </g>
     <g id="text_12">
      <!-- −0.50 -->
      <g transform="translate(19.954687 238.808001)scale(0.1 -0.1)">
       <use xlink:href="#DejaVuSans-2212"/>
       <use xlink:href="#DejaVuSans-30" x="83.789062"/>
       <use xlink:href="#DejaVuSans-2e" x="147.412109"/>
       <use xlink:href="#DejaVuSans-35" x="179.199219"/>
       <use xlink:href="#DejaVuSans-30" x="242.822266"/>
      </g>
     </g>
    </g>
    <g id="ytick_4">
     <g id="line2d_13">
      <g>
       <use xlink:href="#m858171634e" x="57.6" y="204.768581" style="stroke: #000000; stroke-width: 0.8"/>
      </g>
     </g>
     <g id="text_13">
      <!-- −0.25 -->
      <g transform="translate(19.954687 208.5678)scale(0.1 -0.1)">
       <use xlink:href="#DejaVuSans-2212"/>
       <use xlink:href="#DejaVuSans-30" x="83.789062"/>
       <use xlink:href="#DejaVuSans-2e" x="147.412109"/>
       <use xlink:href="#DejaVuSans-32" x="179.199219"/>
       <use xlink:href="#DejaVuSans-35" x="242.822266"/>
      </g>
     </g>
    </g>
    <g id="ytick_5">
     <g id="line2d_14">
      <g>
       <use xlink:href="#m858171634e" x="57.6" y="174.52838" style="stroke: #000000; stroke-width: 0.8"/>
      </g>
     </g>
     <g id="text_14">
      <!-- 0.00 -->
      <g transform="translate(28.334375 178.327599)scale(0.1 -0.1)">
       <use xlink:href="#DejaVuSans-30"/>
       <use xlink:href="#DejaVuSans-2e" x="63.623047"/>
       <use xlink:href="#DejaVuSans-30" x="95.410156"/>
       <use xlink:href="#DejaVuSans-30" x="159.033203"/>
      </g>
     </g>
    </g>
    <g id="ytick_6">
     <g id="line2d_15">
      <g>
       <use xlink:href="#m858171634e" x="57.6" y="144.288179" style="stroke: #000000; stroke-width: 0.8"/>
      </g>
     </g>
     <g id="text_15">
      <!-- 0.25 -->
      <g transform="translate(28.334375 148.087398)scale(0.1 -0.1)">
       <use xlink:href="#DejaVuSans-30"/>
       <use xlink:href="#DejaVuSans-2e" x="63.623047"/>
       <use xlink:href="#DejaVuSans-32" x="95.410156"/>
       <use xlink:href="#DejaVuSans-35" x="159.033203"/>
      </g>
     </g>
    </g>
    <g id="ytick_7">
     <g id="line2d_16">
      <g>
       <use xlink:href="#m858171634e" x="57.6" y="114.047978" style="stroke: #000000; stroke-width: 0.8"/>
      </g>
     </g>
     <g id="text_16">
      <!-- 0.50 -->
      <g transform="translate(28.334375 117.847197)scale(0.1 -0.1)">
       <use xlink:href="#DejaVuSans-30"/>
       <use xlink:href="#DejaVuSans-2e" x="63.623047"/>
       <use xlink:href="#DejaVuSans-35" x="95.410156"/>
       <use xlink:href="#DejaVuSans-30" x="159.033203"/>
      </g>
     </g>
    </g>
    <g id="ytick_8">
     <g id="line2d_17">
      <g>
       <use xlink:href="#m858171634e" x="57.6" y="83.807777" style="stroke: #000000; stroke-width: 0.8"/>
      </g>
     </g>
     <g id="text_17">
      <!-- 0.75 -->
      <g transform="translate(28.334375 87.606995)scale(0.1 -0.1)">
       <use xlink:href="#DejaVuSans-30"/>
       <use xlink:href="#DejaVuSans-2e" x="63.623047"/>
       <use xlink:href="#DejaVuSans-37" x="95.410156"/>
       <use xlink:href="#DejaVuSans-35" x="159.033203"/>
      </g>
     </g>
    </g>
    <g id="ytick_9">
     <g id="line2d_18">
      <g>
       <use xlink:href="#m858171634e" x="57.6" y="53.567575" style="stroke: #000000; stroke-width: 0.8"/>
      </g>
     </g>
     <g id="text_18">
      <!-- 1.00 -->
      <g transform="translate(28.334375 57.366794)scale(0.1 -0.1)">
       <use xlink:href="#DejaVuSans-31"/>
       <use xlink:href="#DejaVuSans-2e" x="63.623047"/>
       <use xlink:href="#DejaVuSans-30" x="95.410156"/>
       <use xlink:href="#DejaVuSans-30" x="159.033203"/>
      </g>
     </g>
    </g>
   </g>
   <g id="line2d_19">
    <path d="M 236.159593 174.52838 
L 252.365398 150.497178 
L 260.417655 138.782018 
L 268.409279 127.424024 
L 276.320296 116.536681 
L 284.130932 106.228772 
L 291.821665 96.60329 
L 299.373272 87.75641 
L 306.766877 79.776527 
L 313.984001 72.743373 
L 321.006604 66.727221 
L 327.817134 61.788182 
L 334.398568 57.975607 
L 340.734456 55.327588 
L 346.808961 53.870584 
L 352.6069 53.619153 
L 358.113782 54.575807 
L 363.315841 56.730987 
L 368.200076 60.06316 
L 372.754279 64.539032 
L 376.967066 70.113881 
L 380.827908 76.732005 
L 384.327155 84.327278 
L 387.456059 92.82381 
L 390.206801 102.136708 
L 392.572506 112.172919 
L 394.54726 122.832166 
L 396.126127 134.007944 
L 397.305161 145.588589 
L 398.081414 157.45839 
L 398.452948 169.49875 
L 398.418833 181.589363 
L 397.979154 193.609426 
L 397.135011 205.438837 
L 395.888513 216.959401 
L 394.242776 228.056009 
L 392.201913 238.617786 
L 389.771026 248.539203 
L 386.95619 257.721128 
L 383.764441 266.071819 
L 380.203757 273.507838 
L 376.283037 279.954887 
L 372.012082 285.348549 
L 367.401566 289.634933 
L 362.463014 292.77121 
L 357.208769 294.726043 
L 351.651964 295.479902 
L 345.806489 295.025253 
L 339.686953 293.366639 
L 333.308653 290.520632 
L 326.68753 286.515669 
L 319.840135 281.391766 
L 312.783582 275.200119 
L 305.53551 268.002594 
L 298.114033 259.871105 
L 290.537703 250.8869 
L 282.825455 241.139746 
L 274.996568 230.727033 
L 267.070608 219.752802 
L 259.067386 208.326704 
L 242.909318 184.578941 
L 218.596444 148.507293 
L 210.552979 136.844086 
L 202.573516 125.557408 
L 194.678001 114.760032 
L 186.886168 104.559841 
L 179.217494 95.058752 
L 171.691145 86.351698 
L 164.325933 78.525677 
L 157.140268 71.658882 
L 150.152111 65.819926 
L 143.378927 61.067148 
L 136.837647 57.448038 
L 130.54462 54.998755 
L 124.515575 53.743774 
L 118.765582 53.695632 
L 113.309013 54.854811 
L 108.159506 57.209728 
L 103.329933 60.736855 
L 98.832366 65.400949 
L 94.678044 71.155409 
L 90.877353 77.942736 
L 87.439792 85.695116 
L 84.373952 94.335089 
L 81.687498 103.776326 
L 79.387144 113.924494 
L 77.478639 124.678196 
L 75.966754 135.929985 
L 74.855267 147.567437 
L 74.146957 159.474273 
L 73.843595 171.531525 
L 73.945938 183.61872 
L 74.453731 195.615088 
L 75.365704 207.400764 
L 76.679578 218.85799 
L 78.392069 229.87229 
L 80.498897 240.333611 
L 82.994795 250.137429 
L 85.873526 259.185785 
L 89.127893 267.388273 
L 92.749763 274.662936 
L 96.730083 280.937087 
L 101.058905 286.148037 
L 105.725407 290.243721 
L 110.717927 293.183216 
L 116.023986 294.93715 
L 121.630322 295.488 
L 127.522921 294.830261 
L 133.687055 292.970506 
L 140.107317 289.927316 
L 146.76766 285.731098 
L 153.651436 280.423779 
L 160.741439 274.058389 
L 168.019949 266.698527 
L 175.468772 258.417732 
L 183.06929 249.298742 
L 190.802507 239.432672 
L 198.649093 228.918099 
L 206.589435 217.860082 
L 214.603688 206.369109 
L 230.773662 182.55073 
L 255.078846 146.524765 
L 263.112952 134.916808 
L 271.079689 123.704637 
L 278.959144 113.00028 
L 286.731622 102.910691 
L 294.377696 93.536683 
L 301.878256 84.971917 
L 309.214553 77.301969 
L 316.368251 70.603476 
L 323.321469 64.943366 
L 330.056827 60.378193 
L 336.557492 56.953571 
L 342.807214 54.703717 
L 348.790372 53.651112 
L 354.492012 53.806273 
L 359.897883 55.167649 
L 364.994472 57.721638 
L 369.769042 61.442722 
L 374.209657 66.29372 
L 378.305219 72.226163 
L 382.045491 79.180776 
L 385.421124 87.08807 
L 388.423681 95.86904 
L 391.045658 105.435947 
L 393.280499 115.693203 
L 395.122621 126.538321 
L 396.567417 137.86294 
L 397.611278 149.553907 
L 398.251593 161.494412 
L 398.486763 173.565147 
L 398.316199 185.645507 
L 397.740328 197.614788 
L 396.76059 209.353397 
L 395.379433 220.744046 
L 393.600309 231.672924 
L 391.427665 242.030832 
L 388.866932 251.714278 
L 385.92451 260.626508 
L 382.607754 268.678474 
L 378.924954 275.789723 
L 374.885315 281.889203 
L 370.498933 286.915968 
L 365.776774 290.819794 
L 360.730638 293.561675 
L 355.37314 295.114214 
L 349.717671 295.4619 
L 343.778365 294.601257 
L 337.570068 292.540887 
L 331.108298 289.301374 
L 324.409206 284.915087 
L 317.489536 279.425853 
L 310.366583 272.888519 
L 303.058151 265.368402 
L 295.582508 256.940641 
L 287.958338 247.689445 
L 280.204698 237.707247 
L 272.340969 227.093787 
L 264.386805 215.955111 
L 256.362088 204.402513 
L 240.18135 180.520251 
L 223.960428 156.399112 
L 215.885575 144.550155 
L 207.861396 133.00073 
L 199.907948 121.866236 
L 192.045111 111.257924 
L 184.292536 101.28179 
L 176.669602 92.037512 
L 169.195362 83.617455 
L 161.888498 76.10575 
L 154.767273 69.577452 
L 147.849487 64.097788 
L 141.152429 59.72151 
L 134.69284 56.492345 
L 128.486865 54.442557 
L 122.550016 53.592626 
L 116.897132 53.951046 
L 111.542341 55.514235 
L 106.499029 58.266573 
L 101.779801 62.180561 
L 97.396452 67.217092 
L 93.359939 73.325841 
L 89.680351 80.445772 
L 86.366884 88.505746 
L 83.427821 97.42523 
L 80.870508 107.115103 
L 78.701337 117.478547 
L 76.92573 128.412014 
L 75.548124 139.80626 
L 74.571963 151.547439 
L 73.999688 163.518235 
L 73.832727 175.599042 
L 74.071499 187.66915 
L 74.715407 199.60796 
L 75.762842 211.296184 
L 77.211185 222.617035 
L 79.056816 233.457401 
L 81.295122 243.708967 
L 83.920508 253.269304 
L 86.926413 262.042888 
L 90.305324 269.942055 
L 94.048794 276.887881 
L 98.147467 282.810964 
L 102.591098 287.652124 
L 107.368581 291.362988 
L 112.467975 293.90648 
L 117.876533 295.257185 
L 123.580737 295.401608 
L 129.56633 294.338306 
L 135.81835 292.077902 
L 142.321172 288.642982 
L 149.05854 284.067867 
L 156.013616 278.39827 
L 163.169015 271.690839 
L 170.506852 264.012593 
L 178.008787 255.44025 
L 185.656069 246.059463 
L 193.429583 235.96396 
L 201.3099 225.254614 
L 209.277323 214.038428 
L 217.311938 202.42747 
L 233.502296 178.488078 
L 249.719204 154.390825 
L 257.786945 142.58402 
L 265.800629 131.096393 
L 273.740226 120.042723 
L 281.585891 109.533457 
L 289.318014 99.673598 
L 296.917268 90.561663 
L 304.36466 82.288696 
L 311.641575 74.937358 
L 318.729824 68.5811 
L 325.61169 63.283432 
L 332.269973 59.097287 
L 338.68803 56.064492 
L 344.849819 54.215348 
L 350.739939 53.568332 
L 356.343669 54.12991 
L 361.647 55.894468 
L 366.636678 58.844378 
L 371.300232 62.950164 
L 375.626004 68.170803 
L 379.603183 74.454132 
L 383.221828 81.737369 
L 386.472894 89.947743 
L 389.348254 99.003219 
L 391.840723 108.813318 
L 393.94407 119.28002 
L 395.653038 130.298745 
L 396.963356 141.759398 
L 397.871748 153.547468 
L 398.375944 165.545172 
L 398.474683 177.632633 
L 398.167719 189.689078 
L 397.455819 201.594042 
L 396.340763 213.228575 
L 394.825337 224.476429 
L 392.913329 235.225218 
L 390.609519 245.367544 
L 387.919664 254.802069 
L 384.850488 263.434525 
L 381.409663 271.178661 
L 377.605788 277.957099 
L 373.448371 283.702112 
L 368.947803 288.356296 
L 364.115334 291.87315 
L 358.963043 294.217534 
L 353.503807 295.366023 
L 347.751271 295.307142 
L 341.719814 294.04148 
L 335.424512 291.581683 
L 328.881099 287.952327 
L 322.105931 283.189677 
L 315.115942 277.34132 
L 307.928602 270.465689 
L 300.561878 262.631485 
L 293.034182 253.916983 
L 285.364328 244.409257 
L 277.571489 234.203304 
L 269.675141 223.401099 
L 261.695022 212.110574 
L 245.563413 188.51956 
L 221.240496 152.388231 
L 213.180438 140.626917 
L 205.177815 129.204335 
L 197.25263 118.234616 
L 189.424693 107.827365 
L 181.713568 98.086569 
L 174.13853 89.109554 
L 166.718513 80.986016 
L 159.472062 73.797123 
L 152.41729 67.614702 
L 145.57183 62.500528 
L 138.952792 58.5057 
L 132.576721 55.670131 
L 126.459553 54.022155 
L 120.616578 53.578237 
L 115.0624 54.342813 
L 109.810902 56.308243 
L 104.875211 59.45489 
L 100.267661 63.751314 
L 95.999771 69.154585 
L 92.082207 75.610716 
L 88.524762 83.0552 
L 85.336327 91.413653 
L 82.524872 100.602562 
L 80.097423 110.530113 
L 78.060049 121.097113 
L 76.417841 132.197981 
L 75.174904 143.7218 
L 74.334345 155.553429 
L 73.898265 167.574648 
L 73.867754 179.665348 
L 74.242888 191.70472 
L 75.022729 203.572472 
L 76.205329 215.150025 
L 77.78773 226.3217 
L 79.76598 236.975874 
L 82.135131 247.006092 
L 84.889264 256.312137 
L 88.021493 264.801026 
L 91.523991 272.387941 
L 95.388003 278.997075 
L 99.60387 284.562393 
L 104.161055 289.028287 
L 109.048168 292.350135 
L 114.252993 294.494748 
L 119.762522 295.440697 
L 125.562982 295.178529 
L 131.639876 293.710865 
L 137.978015 291.052369 
L 144.561557 287.229604 
L 151.374047 282.280766 
L 158.398456 276.255301 
L 165.617227 269.213415 
L 173.012318 261.225467 
L 180.565243 252.37127 
L 188.257126 242.739293 
L 196.06874 232.425775 
L 203.980561 221.533766 
L 211.972812 210.172094 
L 228.118549 186.49741 
L 252.437123 150.391897 
L 260.48893 138.679398 
L 268.479926 127.325091 
L 276.390138 116.442423 
L 284.199795 106.140132 
L 291.889376 96.521152 
L 299.439662 87.681596 
L 306.83178 79.709783 
L 314.047255 72.685367 
L 321.068051 66.678532 
L 327.876621 61.749298 
L 334.455946 57.946915 
L 340.78958 55.309375 
L 346.861695 53.863032 
L 352.657112 53.622337 
L 358.161346 54.589696 
L 363.360638 56.755442 
L 368.241995 60.097937 
L 372.793214 64.583783 
L 377.002921 70.168158 
L 380.860592 76.795267 
L 384.356586 84.398893 
L 387.482165 92.903062 
L 390.229517 102.222805 
L 392.591774 112.265001 
L 394.563031 122.929313 
L 396.138363 134.109185 
L 397.313831 145.692912 
L 398.086498 157.564754 
L 398.454431 169.606091 
L 398.416712 181.69661 
L 397.973435 193.715506 
L 397.125707 205.54269 
L 395.875648 217.05999 
L 394.226382 228.152328 
L 392.182031 238.708874 
L 389.747706 248.624149 
L 386.92949 257.799084 
L 383.734428 266.142005 
L 380.170505 273.569553 
L 376.246631 280.007515 
L 371.972611 285.391564 
L 367.35913 289.667905 
L 362.417719 292.793809 
L 357.160728 294.738045 
L 351.601297 295.481185 
L 345.753322 295.015805 
L 339.631419 293.346554 
L 333.250891 290.490112 
L 326.627686 286.475018 
L 319.778357 281.34139 
L 312.720025 275.140522 
L 305.470331 267.934371 
L 298.047397 259.794938 
L 290.469776 250.80355 
L 282.756407 241.050045 
L 274.926571 230.631878 
L 266.999837 219.653143 
L 258.996019 208.223537 
L 242.837293 184.471876 
L 218.524783 148.402387 
L 210.481797 136.742015 
L 202.502992 125.459193 
L 194.608312 114.666654 
L 186.817488 104.472233 
L 179.149993 94.97779 
L 171.624993 86.278191 
L 164.261296 78.460358 
L 157.077307 71.602405 
L 150.090983 65.772854 
L 143.319785 61.029953 
L 136.780638 57.421091 
L 130.489888 54.982325 
L 124.463256 53.738025 
L 118.715807 53.700621 
L 113.261906 54.870489 
L 108.115186 57.235939 
L 103.28851 60.773336 
L 98.793942 65.447336 
L 94.642717 71.211238 
L 90.84521 78.00745 
L 87.410914 85.768068 
L 84.348412 94.415549 
L 81.665359 103.863491 
L 79.368461 114.017494 
L 77.463459 124.776101 
L 75.955115 136.031816 
L 74.847198 147.672177 
L 74.142479 159.580876 
L 73.842718 171.638925 
L 73.948665 183.725845 
L 74.460054 195.720867 
L 75.375608 207.50414 
L 76.693039 218.957931 
L 78.409052 229.967796 
L 80.51936 240.423729 
L 83.018688 250.221257 
L 85.900788 259.262487 
L 89.158456 267.457082 
L 92.783551 274.723164 
L 96.767012 280.988133 
L 101.098881 286.189391 
L 105.768332 290.274969 
L 110.763693 293.204046 
L 116.072478 294.947355 
L 121.681419 295.487477 
L 127.576495 294.819016 
L 133.742973 292.94865 
L 140.165439 289.895068 
L 146.82784 285.688781 
L 153.713524 280.371815 
L 160.805281 273.997297 
L 168.085383 266.628918 
L 175.535636 258.340302 
L 183.137418 249.214264 
L 190.871727 239.341989 
L 198.719232 228.822119 
L 206.660319 217.759763 
L 214.675138 206.265453 
L 230.84571 182.443531 
L 255.150439 146.420263 
L 263.184035 134.815316 
L 271.150084 123.607168 
L 279.028675 112.907809 
L 286.800116 102.824142 
L 294.444982 93.45692 
L 301.944164 84.899737 
L 309.27892 77.238094 
L 316.430915 70.548543 
L 323.382273 64.897925 
L 330.115621 60.342697 
L 336.614127 56.928376 
L 342.861549 54.689075 
L 348.842272 53.647168 
L 354.541347 53.813067 
L 359.944529 55.185113 
L 365.038314 57.749597 
L 369.809968 61.480897 
L 374.247567 66.341729 
L 378.340017 72.283527 
L 382.07709 79.246922 
L 385.449446 87.162338 
L 388.448654 95.950686 
L 391.067219 105.524156 
L 393.298596 115.787094 
L 395.137208 126.636955 
L 396.578457 137.965332 
L 397.618744 149.659035 
L 398.255466 161.601223 
L 398.487034 173.672576 
L 398.312867 185.75248 
L 397.733401 197.720236 
L 396.750086 209.456267 
L 395.365377 220.843309 
L 393.582737 231.767589 
L 391.406621 242.119953 
L 388.842469 251.796964 
L 385.896688 260.701934 
L 382.576643 268.745885 
L 378.890632 275.848447 
L 374.847867 281.938652 
L 370.458454 286.955649 
L 365.733364 290.84931 
L 360.684407 293.58073 
L 355.324202 295.122619 
L 349.666148 295.45957 
L 343.724387 294.588217 
L 337.51377 292.517265 
L 331.04982 289.267408 
L 324.348694 284.871116 
L 317.427141 279.372316 
L 310.302462 272.825949 
L 302.992464 265.297427 
L 295.515419 256.861969 
L 287.890015 247.603862 
L 280.135312 237.615609 
L 272.270692 226.997009 
L 264.315814 215.85416 
L 256.29056 204.298397 
L 240.109285 180.412948 
L 223.888547 156.292901 
L 215.814055 144.446086 
L 207.790416 132.899844 
L 199.837686 121.76954 
L 191.975741 111.166386 
L 184.224233 101.196323 
L 176.602537 91.95897 
L 169.129702 83.546623 
L 161.824407 76.043336 
L 154.704911 69.524079 
L 147.789009 64.05399 
L 141.093988 59.687725 
L 134.636582 56.46891 
L 128.43293 54.429706 
L 122.498538 53.590488 
L 116.84824 53.959641 
L 111.496159 55.533478 
L 106.455671 58.296272 
L 101.739375 62.220419 
L 97.35906 67.26671 
L 93.325673 73.384725 
L 89.649298 80.513333 
L 86.339121 88.581308 
L 83.403418 97.508038 
L 80.849526 107.20433 
L 78.683828 117.573302 
L 76.911737 128.51135 
L 75.537683 139.909185 
L 74.5651 151.652923 
L 73.99642 163.625226 
L 73.833062 175.706469 
L 74.075437 187.775941 
L 74.722937 199.713048 
L 75.773945 211.398518 
L 77.225834 222.715594 
L 79.074975 233.551199 
L 81.316745 243.797067 
L 83.945541 253.350826 
L 86.954794 262.117017 
L 90.33698 270.008051 
L 94.083647 276.945084 
L 98.185431 282.858803 
L 102.632077 287.69012 
L 107.412473 291.390763 
L 112.51467 293.923755 
L 117.925915 295.263788 
L 123.632682 295.397473 
L 129.620708 294.323474 
L 135.875025 292.052522 
L 142.380002 288.607307 
L 149.119379 284.022254 
L 156.076312 278.343174 
L 163.23341 271.62681 
L 170.572786 263.940272 
L 178.076095 255.360359 
L 185.724583 245.9728 
L 193.499132 235.871392 
L 201.380309 225.157065 
L 209.348417 213.936873 
L 217.383539 202.322924 
L 233.574373 178.380702 
L 249.791037 154.2849 
L 257.858387 142.480414 
L 265.871501 130.996142 
L 273.81035 119.946829 
L 281.655093 109.442877 
L 289.38612 99.589237 
L 296.984109 90.484365 
L 304.430068 82.219233 
L 311.705386 74.876423 
L 318.79188 68.529303 
L 325.671835 63.24129 
L 332.328057 59.065221 
L 338.743907 56.042822 
L 344.903351 54.204292 
L 350.790991 53.568 
L 356.392113 54.140304 
L 361.692716 55.915486 
L 366.679551 58.875809 
L 371.340155 62.991694 
L 375.662878 68.222017 
L 379.636915 74.514518 
L 383.252333 81.806324 
L 386.500096 90.024578 
L 389.372087 99.087167 
L 391.861125 108.903539 
L 393.960992 119.375613 
L 395.666436 130.398755 
L 396.973197 141.862826 
L 397.878008 153.65328 
L 398.378606 165.652311 
L 398.473742 177.740029 
L 398.163177 189.795657 
L 397.447687 201.69874 
L 396.329061 213.330345 
L 394.810094 224.574254 
L 392.894585 235.318121 
L 390.587319 245.454598 
L 387.894064 254.882402 
L 384.821552 263.507336 
L 381.377463 271.243222 
L 377.570405 278.012765 
L 373.409893 283.748326 
L 368.906327 288.392598 
L 364.070963 291.899176 
L 358.915888 294.233024 
L 353.453985 295.370822 
L 347.698908 295.301203 
L 341.665041 294.024862 
L 335.367465 291.554551 
L 328.821921 287.914953 
L 322.044769 283.142435 
L 315.052949 277.28468 
L 307.863937 270.400219 
L 300.495701 262.557838 
L 292.966659 253.835896 
L 285.295628 244.321539 
L 277.501783 234.109832 
L 269.604604 223.302807 
L 261.62383 212.008444 
L 245.491447 188.412843 
L 221.168716 152.282623 
L 213.109079 140.523804 
L 205.107056 129.104747 
L 197.182649 118.139549 
L 189.355663 107.737769 
L 181.645663 98.003339 
L 174.071919 89.033521 
L 166.653362 80.917941 
L 159.408534 73.737684 
L 152.355544 67.564495 
L 145.512021 62.460054 
L 138.895069 58.475362 
L 132.521228 55.650234 
L 126.406429 54.012897 
L 120.565956 53.579711 
L 115.014406 54.355004 
L 109.765657 56.33103 
L 104.832826 59.488044 
L 100.228244 63.794503 
L 95.96342 69.207379 
L 92.049013 75.672588 
L 88.494807 83.12553 
L 85.309687 91.49174 
L 82.501612 100.687625 
L 80.077603 110.621302 
L 78.043717 121.193517 
L 76.405039 132.298637 
L 75.165664 143.825702 
L 74.328689 155.659538 
L 73.896208 167.681906 
L 73.869301 179.772681 
L 74.248035 191.811057 
L 75.031463 203.67675 
L 76.217628 215.251202 
L 77.803565 226.418765 
L 79.785309 237.067857 
L 82.157907 247.092075 
L 84.91543 256.39126 
L 88.050984 264.872499 
L 91.556732 272.451049 
L 95.423913 279.051188 
L 99.642859 284.60697 
L 104.203026 289.062883 
L 109.093015 292.374405 
L 114.300605 294.508448 
L 119.812779 295.44369 
L 125.61576 295.170787 
L 131.695042 293.692464 
L 138.035431 291.023494 
L 144.62108 287.190542 
L 151.435527 282.231908 
L 158.461741 276.197135 
L 165.682158 269.146522 
L 173.078732 261.150516 
L 180.632976 252.28901 
L 188.326007 242.650545 
L 196.138598 232.331426 
L 204.05122 221.434759 
L 212.044096 210.069418 
L 228.190548 186.390501 
L 252.508844 150.286635 
L 260.560199 138.576807 
L 268.550566 127.226195 
L 276.459971 116.348212 
L 284.268647 106.051545 
L 291.957075 96.439076 
L 299.506039 87.60685 
L 306.896669 79.643115 
L 314.110494 72.627442 
L 321.129482 66.629929 
L 327.936089 61.710502 
L 334.513303 57.918315 
L 340.844684 55.291256 
L 346.914407 53.855575 
L 352.707301 53.625617 
L 358.208885 54.60368 
L 363.405411 56.779991 
L 368.283887 60.132804 
L 372.832122 64.62862 
L 377.038747 70.222519 
L 380.893247 76.858607 
L 384.385989 84.470579 
L 387.508242 92.982379 
L 390.252202 102.308959 
L 392.61101 112.357132 
L 394.578772 123.0265 
L 396.150568 134.210458 
L 397.32247 145.797259 
L 398.091549 157.671131 
L 398.455882 169.713436 
L 398.414559 181.80385 
L 397.967683 193.82157 
L 397.116372 205.646519 
L 395.862752 217.160546 
L 394.209957 228.248606 
L 392.162119 238.799911 
L 389.724355 248.709037 
L 386.90276 257.876974 
L 383.704385 266.212119 
L 380.137226 273.631191 
L 376.210197 280.06006 
L 371.933114 285.434491 
L 367.316669 289.700786 
L 362.372399 292.816316 
L 357.112662 294.749951 
L 351.550606 295.482373 
L 345.700133 295.006262 
L 339.575865 293.326376 
L 333.193111 290.4595 
L 326.567823 286.434278 
L 319.716562 281.29093 
L 312.656452 275.080845 
L 305.405139 267.866074 
L 297.980749 259.718703 
L 290.401838 250.720139 
L 282.68735 240.960291 
L 274.856566 230.536678 
L 266.929061 219.553449 
L 258.924647 208.120344 
L 242.765267 184.364804 
L 218.453124 148.297501 
L 210.410621 136.639975 
L 202.432476 125.361017 
L 194.538631 114.573323 
L 186.748817 104.384681 
L 179.082504 94.896891 
L 171.558855 86.204753 
L 164.196673 78.395115 
L 157.014361 71.546009 
L 150.029872 65.725869 
L 143.260661 60.992848 
L 136.72365 57.394236 
L 130.435176 54.965989 
L 124.410959 53.732371 
L 118.666055 53.705706 
L 113.214824 54.886262 
L 108.07089 57.262242 
L 103.247112 60.809907 
L 98.755545 65.493809 
L 94.607417 71.267148 
L 90.813096 78.07224 
L 87.382066 85.841089 
L 84.322902 94.496072 
L 81.64325 103.950712 
L 79.349809 114.110541 
L 77.44831 124.874044 
L 75.943507 136.133678 
L 74.839161 147.776938 
L 74.138032 159.68749 
L 73.841873 171.746328 
L 73.951423 183.832962 
L 74.466409 195.826629 
L 75.385544 207.60749 
L 76.706531 219.057836 
L 78.426067 230.063258 
L 80.539854 240.513794 
L 83.04261 250.305026 
L 85.928079 259.339122 
L 89.189048 267.525817 
L 92.817367 274.783313 
L 96.803967 281.039095 
L 101.138884 286.230657 
L 105.811282 290.306126 
L 110.809483 293.224783 
L 116.120993 294.957464 
L 121.732538 295.486858 
L 127.630091 294.807675 
L 133.798911 292.926701 
L 140.223579 289.862729 
L 146.888038 285.646376 
L 153.775629 280.319767 
L 160.869137 273.936127 
L 168.150832 266.559237 
L 175.602513 258.262805 
L 183.205556 249.129726 
L 190.940956 239.251255 
L 198.789379 228.726095 
L 206.731208 217.659409 
L 214.746593 206.161773 
L 230.917758 182.336326 
L 255.222029 146.315783 
L 263.255113 134.713854 
L 271.220473 123.50974 
L 279.098199 112.815386 
L 286.8686 102.737649 
L 294.512255 93.37722 
L 302.01006 84.827628 
L 309.343272 77.174295 
L 316.493563 70.493693 
L 323.443061 64.85257 
L 330.174396 60.307292 
L 336.670743 56.903274 
L 342.915864 54.674526 
L 348.89415 53.643319 
L 354.590659 53.819955 
L 359.991151 55.20267 
L 365.082129 57.777648 
L 369.850868 61.519161 
L 374.285449 66.389824 
L 378.374786 72.340972 
L 382.10866 79.313143 
L 385.477737 87.236674 
L 388.473597 96.032394 
L 391.088751 105.61242 
L 393.316662 115.881031 
L 395.151763 126.735627 
L 396.589466 138.067753 
L 397.626178 149.764181 
L 398.259308 161.708045 
L 398.487273 173.780006 
L 398.309503 185.859444 
L 397.726443 197.825666 
L 396.73955 209.559109 
L 395.35129 220.942536 
L 393.565134 231.862209 
L 391.385547 242.209021 
L 388.817975 251.87959 
L 385.868837 260.777292 
L 382.545504 268.813223 
L 378.856282 275.907091 
L 374.810393 281.988017 
L 370.417948 286.995241 
L 365.689929 290.878733 
L 360.63815 293.599692 
L 355.27524 295.130929 
L 349.614603 295.457145 
L 343.670388 294.575081 
L 337.457451 292.493551 
L 330.991323 289.233351 
L 324.288165 284.827057 
L 317.364731 279.318695 
L 310.238327 272.763303 
L 302.926764 265.22638 
L 295.448318 256.783232 
L 287.821682 247.518222 
L 280.065917 237.523921 
L 272.200409 226.900189 
L 264.244817 215.753176 
L 256.219028 204.194258 
L 240.03722 180.305641 
L 223.816668 156.186704 
L 215.742539 144.342041 
L 207.719442 132.798991 
L 199.767431 121.672886 
L 191.906381 111.074897 
L 184.155941 101.110914 
L 176.535483 91.880493 
L 169.064055 83.475863 
L 161.76033 75.981 
L 154.642565 69.47079 
L 147.72855 64.01028 
L 141.035566 59.654031 
L 134.580343 56.445568 
L 128.379015 54.416949 
L 122.447083 53.588445 
L 116.799373 53.968332 
L 111.450001 55.552815 
L 106.412338 58.326063 
L 101.698975 62.260366 
L 97.321694 67.316414 
L 93.291436 73.443688 
L 89.618273 80.580967 
L 86.311388 88.656938 
L 83.379045 97.590908 
L 80.828574 107.293611 
L 78.666349 117.668102 
L 76.897776 128.610723 
L 75.527274 140.012137 
L 74.558269 151.758426 
L 73.993183 163.732225 
L 73.833429 175.813896 
L 74.079406 187.882722 
L 74.730499 199.818116 
L 75.785081 211.500823 
L 77.240515 222.814114 
L 79.093164 233.64495 
L 81.338398 243.885113 
L 83.970604 253.432286 
L 86.983203 262.191077 
L 90.368665 270.073972 
L 94.118529 277.002206 
L 98.223422 282.906556 
L 102.673083 287.728027 
L 107.456391 291.418445 
L 112.56139 293.940936 
L 117.97532 295.270296 
L 123.684649 295.393243 
L 129.675107 294.308548 
L 135.93172 292.027049 
L 142.438851 288.571542 
L 149.180236 283.976554 
L 156.139023 278.287995 
L 163.29782 271.562705 
L 170.638733 263.86788 
L 178.143415 255.280405 
L 185.793107 245.886081 
L 185.793107 245.886081 
" clip-path="url(#p01ede2a72d)" style="fill: none; stroke: #1f77b4; stroke-width: 1.5; stroke-linecap: square"/>
   </g>
   <g id="patch_3">
    <path d="M 57.6 307.584 
L 57.6 41.472 
" style="fill: none; stroke: #000000; stroke-width: 0.8; stroke-linejoin: miter; stroke-linecap: square"/>
   </g>
   <g id="patch_4">
    <path d="M 414.72 307.584 
L 414.72 41.472 
" style="fill: none; stroke: #000000; stroke-width: 0.8; stroke-linejoin: miter; stroke-linecap: square"/>
   </g>
   <g id="patch_5">
    <path d="M 57.6 307.584 
L 414.72 307.584 
" style="fill: none; stroke: #000000; stroke-width: 0.8; stroke-linejoin: miter; stroke-linecap: square"/>
   </g>
   <g id="patch_6">
    <path d="M 57.6 41.472 
L 414.72 41.472 
" style="fill: none; stroke: #000000; stroke-width: 0.8; stroke-linejoin: miter; stroke-linecap: square"/>
   </g>
  </g>
 </g>
 <defs>
  <clipPath id="p01ede2a72d">
   <rect x="57.6" y="41.472" width="357.12" height="266.112"/>
  </clipPath>
 </defs>
</svg>
