<?xml version="1.0" encoding="utf-8" standalone="no"?>
<!DOCTYPE svg PUBLIC "-//W3C//DTD SVG 1.1//EN"
  "http://www.w3.org/Graphics/SVG/1.1/DTD/svg11.dtd">
<svg xmlns:xlink="http://www.w3.org/1999/xlink" width="460.8pt" height="345.6pt" viewBox="0 0 460.8 345.6" xmlns="http://www.w3.org/2000/svg" version="1.1">
 <metadata>
  <rdf:RDF xmlns:dc="http://purl.org/dc/elements/1.1/" xmlns:cc="http://creativecommons.org/ns#" xmlns:rdf="http://www.w3.org/1999/02/22-rdf-syntax-ns#">
   <cc:Work>
    <dc:type rdf:resource="http://purl.org/dc/dcmitype/StillImage"/>
    <dc:date>2022-05-01T00:00:32.773352</dc:date>
    <dc:format>image/svg+xml</dc:format>
    <dc:creator>
     <cc:Agent>
      <dc:title>Matplotlib v3.5.1, https://matplotlib.org/</dc:title>
     </cc:Agent>
    </dc:creator>
   </cc:Work>
  </rdf:RDF>
 </metadata>
 <defs>
  <style type="text/css">*{stroke-linejoin: round; stroke-linecap: butt}</style>
 </defs>
 <g id="figure_1">
  <g id="patch_1">
   <path d="M 0 345.6 
L 460.8 345.6 
L 460.8 0 
L 0 0 
z
" style="fill: #ffffff"/>
  </g>
  <g id="axes_1">
   <g id="patch_2">
    <path d="M 57.6 307.584 
L 414.72 307.584 
L 414.72 41.472 
L 57.6 41.472 
z
" style="fill: #ffffff"/>
   </g>
   <g id="matplotlib.axis_1">
    <g id="xtick_1">
     <g id="line2d_1">
      <defs>
       <path id="md23daed1db" d="M 0 0 
L 0 3.5 
" style="stroke: #000000; stroke-width: 0.8"/>
      </defs>
      <g>
       <use xlink:href="#md23daed1db" x="73.832602" y="307.584" style="stroke: #000000; stroke-width: 0.8"/>
      </g>
     </g>
     <g id="text_1">
      <!-- −1.00 -->
      <g transform="translate(58.509946 322.182437)scale(0.1 -0.1)">
       <defs>
        <path id="DejaVuSans-2212" d="M 678 2272 
L 4684 2272 
L 4684 1741 
L 678 1741 
L 678 2272 
z
" transform="scale(0.015625)"/>
        <path id="DejaVuSans-31" d="M 794 531 
L 1825 531 
L 1825 4091 
L 703 3866 
L 703 4441 
L 1819 4666 
L 2450 4666 
L 2450 531 
L 3481 531 
L 3481 0 
L 794 0 
L 794 531 
z
" transform="scale(0.015625)"/>
        <path id="DejaVuSans-2e" d="M 684 794 
L 1344 794 
L 1344 0 
L 684 0 
L 684 794 
z
" transform="scale(0.015625)"/>
        <path id="DejaVuSans-30" d="M 2034 4250 
Q 1547 4250 1301 3770 
Q 1056 3291 1056 2328 
Q 1056 1369 1301 889 
Q 1547 409 2034 409 
Q 2525 409 2770 889 
Q 3016 1369 3016 2328 
Q 3016 3291 2770 3770 
Q 2525 4250 2034 4250 
z
M 2034 4750 
Q 2819 4750 3233 4129 
Q 3647 3509 3647 2328 
Q 3647 1150 3233 529 
Q 2819 -91 2034 -91 
Q 1250 -91 836 529 
Q 422 1150 422 2328 
Q 422 3509 836 4129 
Q 1250 4750 2034 4750 
z
" transform="scale(0.015625)"/>
       </defs>
       <use xlink:href="#DejaVuSans-2212"/>
       <use xlink:href="#DejaVuSans-31" x="83.789062"/>
       <use xlink:href="#DejaVuSans-2e" x="147.412109"/>
       <use xlink:href="#DejaVuSans-30" x="179.199219"/>
       <use xlink:href="#DejaVuSans-30" x="242.822266"/>
      </g>
     </g>
    </g>
    <g id="xtick_2">
     <g id="line2d_2">
      <g>
       <use xlink:href="#md23daed1db" x="114.414507" y="307.584" style="stroke: #000000; stroke-width: 0.8"/>
      </g>
     </g>
     <g id="text_2">
      <!-- −0.75 -->
      <g transform="translate(99.091851 322.182437)scale(0.1 -0.1)">
       <defs>
        <path id="DejaVuSans-37" d="M 525 4666 
L 3525 4666 
L 3525 4397 
L 1831 0 
L 1172 0 
L 2766 4134 
L 525 4134 
L 525 4666 
z
" transform="scale(0.015625)"/>
        <path id="DejaVuSans-35" d="M 691 4666 
L 3169 4666 
L 3169 4134 
L 1269 4134 
L 1269 2991 
Q 1406 3038 1543 3061 
Q 1681 3084 1819 3084 
Q 2600 3084 3056 2656 
Q 3513 2228 3513 1497 
Q 3513 744 3044 326 
Q 2575 -91 1722 -91 
Q 1428 -91 1123 -41 
Q 819 9 494 109 
L 494 744 
Q 775 591 1075 516 
Q 1375 441 1709 441 
Q 2250 441 2565 725 
Q 2881 1009 2881 1497 
Q 2881 1984 2565 2268 
Q 2250 2553 1709 2553 
Q 1456 2553 1204 2497 
Q 953 2441 691 2322 
L 691 4666 
z
" transform="scale(0.015625)"/>
       </defs>
       <use xlink:href="#DejaVuSans-2212"/>
       <use xlink:href="#DejaVuSans-30" x="83.789062"/>
       <use xlink:href="#DejaVuSans-2e" x="147.412109"/>
       <use xlink:href="#DejaVuSans-37" x="179.199219"/>
       <use xlink:href="#DejaVuSans-35" x="242.822266"/>
      </g>
     </g>
    </g>
    <g id="xtick_3">
     <g id="line2d_3">
      <g>
       <use xlink:href="#md23daed1db" x="154.996412" y="307.584" style="stroke: #000000; stroke-width: 0.8"/>
      </g>
     </g>
     <g id="text_3">
      <!-- −0.50 -->
      <g transform="translate(139.673756 322.182437)scale(0.1 -0.1)">
       <use xlink:href="#DejaVuSans-2212"/>
       <use xlink:href="#DejaVuSans-30" x="83.789062"/>
       <use xlink:href="#DejaVuSans-2e" x="147.412109"/>
       <use xlink:href="#DejaVuSans-35" x="179.199219"/>
       <use xlink:href="#DejaVuSans-30" x="242.822266"/>
      </g>
     </g>
    </g>
    <g id="xtick_4">
     <g id="line2d_4">
      <g>
       <use xlink:href="#md23daed1db" x="195.578317" y="307.584" style="stroke: #000000; stroke-width: 0.8"/>
      </g>
     </g>
     <g id="text_4">
      <!-- −0.25 -->
      <g transform="translate(180.255661 322.182437)scale(0.1 -0.1)">
       <defs>
        <path id="DejaVuSans-32" d="M 1228 531 
L 3431 531 
L 3431 0 
L 469 0 
L 469 531 
Q 828 903 1448 1529 
Q 2069 2156 2228 2338 
Q 2531 2678 2651 2914 
Q 2772 3150 2772 3378 
Q 2772 3750 2511 3984 
Q 2250 4219 1831 4219 
Q 1534 4219 1204 4116 
Q 875 4013 500 3803 
L 500 4441 
Q 881 4594 1212 4672 
Q 1544 4750 1819 4750 
Q 2544 4750 2975 4387 
Q 3406 4025 3406 3419 
Q 3406 3131 3298 2873 
Q 3191 2616 2906 2266 
Q 2828 2175 2409 1742 
Q 1991 1309 1228 531 
z
" transform="scale(0.015625)"/>
       </defs>
       <use xlink:href="#DejaVuSans-2212"/>
       <use xlink:href="#DejaVuSans-30" x="83.789062"/>
       <use xlink:href="#DejaVuSans-2e" x="147.412109"/>
       <use xlink:href="#DejaVuSans-32" x="179.199219"/>
       <use xlink:href="#DejaVuSans-35" x="242.822266"/>
      </g>
     </g>
    </g>
    <g id="xtick_5">
     <g id="line2d_5">
      <g>
       <use xlink:href="#md23daed1db" x="236.160222" y="307.584" style="stroke: #000000; stroke-width: 0.8"/>
      </g>
     </g>
     <g id="text_5">
      <!-- 0.00 -->
      <g transform="translate(225.02741 322.182437)scale(0.1 -0.1)">
       <use xlink:href="#DejaVuSans-30"/>
       <use xlink:href="#DejaVuSans-2e" x="63.623047"/>
       <use xlink:href="#DejaVuSans-30" x="95.410156"/>
       <use xlink:href="#DejaVuSans-30" x="159.033203"/>
      </g>
     </g>
    </g>
    <g id="xtick_6">
     <g id="line2d_6">
      <g>
       <use xlink:href="#md23daed1db" x="276.742127" y="307.584" style="stroke: #000000; stroke-width: 0.8"/>
      </g>
     </g>
     <g id="text_6">
      <!-- 0.25 -->
      <g transform="translate(265.609315 322.182437)scale(0.1 -0.1)">
       <use xlink:href="#DejaVuSans-30"/>
       <use xlink:href="#DejaVuSans-2e" x="63.623047"/>
       <use xlink:href="#DejaVuSans-32" x="95.410156"/>
       <use xlink:href="#DejaVuSans-35" x="159.033203"/>
      </g>
     </g>
    </g>
    <g id="xtick_7">
     <g id="line2d_7">
      <g>
       <use xlink:href="#md23daed1db" x="317.324032" y="307.584" style="stroke: #000000; stroke-width: 0.8"/>
      </g>
     </g>
     <g id="text_7">
      <!-- 0.50 -->
      <g transform="translate(306.19122 322.182437)scale(0.1 -0.1)">
       <use xlink:href="#DejaVuSans-30"/>
       <use xlink:href="#DejaVuSans-2e" x="63.623047"/>
       <use xlink:href="#DejaVuSans-35" x="95.410156"/>
       <use xlink:href="#DejaVuSans-30" x="159.033203"/>
      </g>
     </g>
    </g>
    <g id="xtick_8">
     <g id="line2d_8">
      <g>
       <use xlink:href="#md23daed1db" x="357.905937" y="307.584" style="stroke: #000000; stroke-width: 0.8"/>
      </g>
     </g>
     <g id="text_8">
      <!-- 0.75 -->
      <g transform="translate(346.773125 322.182437)scale(0.1 -0.1)">
       <use xlink:href="#DejaVuSans-30"/>
       <use xlink:href="#DejaVuSans-2e" x="63.623047"/>
       <use xlink:href="#DejaVuSans-37" x="95.410156"/>
       <use xlink:href="#DejaVuSans-35" x="159.033203"/>
      </g>
     </g>
    </g>
    <g id="xtick_9">
     <g id="line2d_9">
      <g>
       <use xlink:href="#md23daed1db" x="398.487842" y="307.584" style="stroke: #000000; stroke-width: 0.8"/>
      </g>
     </g>
     <g id="text_9">
      <!-- 1.00 -->
      <g transform="translate(387.35503 322.182437)scale(0.1 -0.1)">
       <use xlink:href="#DejaVuSans-31"/>
       <use xlink:href="#DejaVuSans-2e" x="63.623047"/>
       <use xlink:href="#DejaVuSans-30" x="95.410156"/>
       <use xlink:href="#DejaVuSans-30" x="159.033203"/>
      </g>
     </g>
    </g>
   </g>
   <g id="matplotlib.axis_2">
    <g id="ytick_1">
     <g id="line2d_10">
      <defs>
       <path id="me4919dcd51" d="M 0 0 
L -3.5 0 
" style="stroke: #000000; stroke-width: 0.8"/>
      </defs>
      <g>
       <use xlink:href="#me4919dcd51" x="57.6" y="295.489185" style="stroke: #000000; stroke-width: 0.8"/>
      </g>
     </g>
     <g id="text_10">
      <!-- −1.00 -->
      <g transform="translate(19.954687 299.288403)scale(0.1 -0.1)">
       <use xlink:href="#DejaVuSans-2212"/>
       <use xlink:href="#DejaVuSans-31" x="83.789062"/>
       <use xlink:href="#DejaVuSans-2e" x="147.412109"/>
       <use xlink:href="#DejaVuSans-30" x="179.199219"/>
       <use xlink:href="#DejaVuSans-30" x="242.822266"/>
      </g>
     </g>
    </g>
    <g id="ytick_2">
     <g id="line2d_11">
      <g>
       <use xlink:href="#me4919dcd51" x="57.6" y="265.248983" style="stroke: #000000; stroke-width: 0.8"/>
      </g>
     </g>
     <g id="text_11">
      <!-- −0.75 -->
      <g transform="translate(19.954687 269.048202)scale(0.1 -0.1)">
       <use xlink:href="#DejaVuSans-2212"/>
       <use xlink:href="#DejaVuSans-30" x="83.789062"/>
       <use xlink:href="#DejaVuSans-2e" x="147.412109"/>
       <use xlink:href="#DejaVuSans-37" x="179.199219"/>
       <use xlink:href="#DejaVuSans-35" x="242.822266"/>
      </g>
     </g>
    </g>
    <g id="ytick_3">
     <g id="line2d_12">
      <g>
       <use xlink:href="#me4919dcd51" x="57.6" y="235.008782" style="stroke: #000000; stroke-width: 0.8"/>
      </g>
     </g>
     <g id="text_12">
      <!-- −0.50 -->
      <g transform="translate(19.954687 238.808001)scale(0.1 -0.1)">
       <use xlink:href="#DejaVuSans-2212"/>
       <use xlink:href="#DejaVuSans-30" x="83.789062"/>
       <use xlink:href="#DejaVuSans-2e" x="147.412109"/>
       <use xlink:href="#DejaVuSans-35" x="179.199219"/>
       <use xlink:href="#DejaVuSans-30" x="242.822266"/>
      </g>
     </g>
    </g>
    <g id="ytick_4">
     <g id="line2d_13">
      <g>
       <use xlink:href="#me4919dcd51" x="57.6" y="204.768581" style="stroke: #000000; stroke-width: 0.8"/>
      </g>
     </g>
     <g id="text_13">
      <!-- −0.25 -->
      <g transform="translate(19.954687 208.5678)scale(0.1 -0.1)">
       <use xlink:href="#DejaVuSans-2212"/>
       <use xlink:href="#DejaVuSans-30" x="83.789062"/>
       <use xlink:href="#DejaVuSans-2e" x="147.412109"/>
       <use xlink:href="#DejaVuSans-32" x="179.199219"/>
       <use xlink:href="#DejaVuSans-35" x="242.822266"/>
      </g>
     </g>
    </g>
    <g id="ytick_5">
     <g id="line2d_14">
      <g>
       <use xlink:href="#me4919dcd51" x="57.6" y="174.52838" style="stroke: #000000; stroke-width: 0.8"/>
      </g>
     </g>
     <g id="text_14">
      <!-- 0.00 -->
      <g transform="translate(28.334375 178.327599)scale(0.1 -0.1)">
       <use xlink:href="#DejaVuSans-30"/>
       <use xlink:href="#DejaVuSans-2e" x="63.623047"/>
       <use xlink:href="#DejaVuSans-30" x="95.410156"/>
       <use xlink:href="#DejaVuSans-30" x="159.033203"/>
      </g>
     </g>
    </g>
    <g id="ytick_6">
     <g id="line2d_15">
      <g>
       <use xlink:href="#me4919dcd51" x="57.6" y="144.288179" style="stroke: #000000; stroke-width: 0.8"/>
      </g>
     </g>
     <g id="text_15">
      <!-- 0.25 -->
      <g transform="translate(28.334375 148.087398)scale(0.1 -0.1)">
       <use xlink:href="#DejaVuSans-30"/>
       <use xlink:href="#DejaVuSans-2e" x="63.623047"/>
       <use xlink:href="#DejaVuSans-32" x="95.410156"/>
       <use xlink:href="#DejaVuSans-35" x="159.033203"/>
      </g>
     </g>
    </g>
    <g id="ytick_7">
     <g id="line2d_16">
      <g>
       <use xlink:href="#me4919dcd51" x="57.6" y="114.047978" style="stroke: #000000; stroke-width: 0.8"/>
      </g>
     </g>
     <g id="text_16">
      <!-- 0.50 -->
      <g transform="translate(28.334375 117.847197)scale(0.1 -0.1)">
       <use xlink:href="#DejaVuSans-30"/>
       <use xlink:href="#DejaVuSans-2e" x="63.623047"/>
       <use xlink:href="#DejaVuSans-35" x="95.410156"/>
       <use xlink:href="#DejaVuSans-30" x="159.033203"/>
      </g>
     </g>
    </g>
    <g id="ytick_8">
     <g id="line2d_17">
      <g>
       <use xlink:href="#me4919dcd51" x="57.6" y="83.807777" style="stroke: #000000; stroke-width: 0.8"/>
      </g>
     </g>
     <g id="text_17">
      <!-- 0.75 -->
      <g transform="translate(28.334375 87.606995)scale(0.1 -0.1)">
       <use xlink:href="#DejaVuSans-30"/>
       <use xlink:href="#DejaVuSans-2e" x="63.623047"/>
       <use xlink:href="#DejaVuSans-37" x="95.410156"/>
       <use xlink:href="#DejaVuSans-35" x="159.033203"/>
      </g>
     </g>
    </g>
    <g id="ytick_9">
     <g id="line2d_18">
      <g>
       <use xlink:href="#me4919dcd51" x="57.6" y="53.567575" style="stroke: #000000; stroke-width: 0.8"/>
      </g>
     </g>
     <g id="text_18">
      <!-- 1.00 -->
      <g transform="translate(28.334375 57.366794)scale(0.1 -0.1)">
       <use xlink:href="#DejaVuSans-31"/>
       <use xlink:href="#DejaVuSans-2e" x="63.623047"/>
       <use xlink:href="#DejaVuSans-30" x="95.410156"/>
       <use xlink:href="#DejaVuSans-30" x="159.033203"/>
      </g>
     </g>
    </g>
   </g>
   <g id="line2d_19">
    <path d="M 236.160222 174.52838 
L 262.021968 150.497178 
L 287.223064 127.424024 
L 299.373575 116.536681 
L 311.119737 106.228772 
L 322.386414 96.60329 
L 333.101537 87.75641 
L 343.196567 79.776527 
L 352.606929 72.743373 
L 361.27243 66.727221 
L 369.13764 61.788182 
L 376.152248 57.975607 
L 382.271385 55.327588 
L 387.455909 53.870584 
L 391.672657 53.619153 
L 394.894656 54.575807 
L 397.101296 56.730987 
L 398.278463 60.06316 
L 398.418626 64.539032 
L 397.52089 70.113881 
L 395.590995 76.732005 
L 392.641288 84.327278 
L 388.690636 92.82381 
L 383.76431 102.136708 
L 377.893821 112.172919 
L 371.116721 122.832166 
L 363.47636 134.007944 
L 355.02161 145.588589 
L 345.806553 157.45839 
L 335.890133 169.49875 
L 325.335783 181.589363 
L 314.211013 193.609426 
L 302.586985 205.438837 
L 290.538052 216.959401 
L 278.141286 228.056009 
L 265.475985 238.617786 
L 252.623163 248.539203 
L 239.665034 257.721128 
L 226.684487 266.071819 
L 213.764552 273.507838 
L 200.987872 279.954887 
L 188.436176 285.348549 
L 176.189751 289.634933 
L 164.326932 292.77121 
L 152.923601 294.726043 
L 142.052701 295.479902 
L 131.783767 295.025253 
L 122.182486 293.366639 
L 113.310275 290.520632 
L 105.223883 286.515669 
L 97.975037 281.391766 
L 91.610105 275.200119 
L 86.1698 268.002594 
L 81.688923 259.871105 
L 78.196134 250.8869 
L 75.713776 241.139746 
L 74.257728 230.727033 
L 73.837304 219.752802 
L 74.455192 208.326704 
L 76.107441 196.562903 
L 78.783481 184.578941 
L 82.466196 172.494557 
L 87.132027 160.430494 
L 92.751131 148.507293 
L 99.287563 136.844086 
L 106.699513 125.557408 
L 114.93957 114.760032 
L 123.955026 104.559841 
L 133.688211 95.058752 
L 144.076868 86.351698 
L 155.054545 78.525677 
L 166.55102 71.658882 
L 178.492758 65.819926 
L 190.80337 61.067148 
L 203.404111 57.448038 
L 216.214379 54.998755 
L 229.152233 53.743774 
L 242.134914 53.695632 
L 255.079377 54.854811 
L 267.902823 57.209728 
L 280.523224 60.736855 
L 292.859853 65.400949 
L 304.833798 71.155409 
L 316.368467 77.942736 
L 327.390076 85.695116 
L 337.828126 94.335089 
L 347.615848 103.776326 
L 356.690635 113.924494 
L 364.994438 124.678196 
L 372.474142 135.929985 
L 379.081902 147.567437 
L 384.775451 159.474273 
L 389.518369 171.531525 
L 393.280319 183.61872 
L 396.037237 195.615088 
L 397.771487 207.400764 
L 398.471976 218.85799 
L 398.134225 229.87229 
L 396.760392 240.333611 
L 394.359266 250.137429 
L 390.946207 259.185785 
L 386.543045 267.388273 
L 381.177946 274.662936 
L 374.885229 280.937087 
L 367.705145 286.148037 
L 359.683623 290.243721 
L 350.871973 293.183216 
L 341.326558 294.93715 
L 331.108438 295.488 
L 320.282974 294.830261 
L 308.919411 292.970506 
L 297.090437 289.927316 
L 284.871718 285.731098 
L 272.341412 280.423779 
L 259.579669 274.058389 
L 246.668122 266.698527 
L 233.68936 258.417732 
L 220.726404 249.298742 
L 207.862171 239.432672 
L 195.178949 228.918099 
L 182.757867 217.860082 
L 170.678379 206.369109 
L 159.01775 194.559994 
L 147.85057 182.55073 
L 137.248271 170.461309 
L 127.27867 158.412525 
L 118.00554 146.524765 
L 109.488197 134.916808 
L 101.781122 123.704637 
L 94.933615 113.00028 
L 88.989476 102.910691 
L 83.986728 93.536683 
L 79.957371 84.971917 
L 76.927179 77.301969 
L 74.915535 70.603476 
L 73.935307 64.943366 
L 73.992765 60.378193 
L 75.087541 56.953571 
L 77.212632 54.703717 
L 80.354446 53.651112 
L 84.492885 53.806273 
L 89.601477 55.167649 
L 95.647545 57.721638 
L 102.592415 61.442722 
L 110.391663 66.29372 
L 118.9954 72.226163 
L 128.348593 79.180776 
L 138.391412 87.08807 
L 149.059618 95.86904 
L 160.28497 105.435947 
L 171.995665 115.693203 
L 184.116794 126.538321 
L 209.278091 149.553907 
L 273.740661 209.353397 
L 286.240404 220.744046 
L 298.419805 231.672924 
L 310.200957 242.030832 
L 321.508501 251.714278 
L 332.270107 260.626508 
L 342.416938 268.678474 
L 351.884088 275.789723 
L 360.611001 281.889203 
L 368.541853 286.915968 
L 375.625915 290.819794 
L 381.817872 293.561675 
L 387.078118 295.114214 
L 391.373003 295.4619 
L 394.675057 294.601257 
L 396.963157 292.540887 
L 398.222667 289.301374 
L 398.44553 284.915087 
L 397.630321 279.425853 
L 395.782254 272.888519 
L 392.913151 265.368402 
L 389.041364 256.940641 
L 384.19166 247.689445 
L 378.39506 237.707247 
L 371.688642 227.093787 
L 364.115304 215.955111 
L 355.723491 204.402513 
L 346.566881 192.551422 
L 336.704045 180.520251 
L 326.198072 168.429211 
L 315.116164 156.399112 
L 303.529207 144.550155 
L 291.511319 133.00073 
L 279.139372 121.866236 
L 266.492506 111.257924 
L 253.651616 101.28179 
L 240.698842 92.037512 
L 227.717035 83.617455 
L 214.789236 76.10575 
L 201.998139 69.577452 
L 189.425562 64.097788 
L 177.151928 59.72151 
L 165.255745 56.492345 
L 153.813109 54.442557 
L 142.897214 53.592626 
L 132.577883 53.951046 
L 122.921126 55.514235 
L 113.988713 58.266573 
L 105.837781 62.180561 
L 98.520467 67.217092 
L 92.083578 73.325841 
L 86.568288 80.445772 
L 82.009876 88.505746 
L 78.4375 97.42523 
L 75.874011 107.115103 
L 74.335807 117.478547 
L 73.832727 128.412014 
L 74.367989 139.80626 
L 75.938169 151.547439 
L 78.533224 163.518235 
L 82.136553 175.599042 
L 86.725109 187.66915 
L 92.269539 199.60796 
L 98.734378 211.296184 
L 106.078274 222.617035 
L 114.25425 233.457401 
L 123.210009 243.708967 
L 132.888263 253.269304 
L 143.227106 262.042888 
L 154.160403 269.942055 
L 165.618219 276.887881 
L 177.527264 282.810964 
L 189.811359 287.652124 
L 202.391929 291.362988 
L 215.188501 293.90648 
L 228.11922 295.257185 
L 241.101374 295.401608 
L 254.051921 294.338306 
L 266.888023 292.077902 
L 279.527572 288.642982 
L 291.889718 284.067867 
L 303.895385 278.39827 
L 315.467778 271.690839 
L 326.532874 264.012593 
L 337.019893 255.44025 
L 346.861754 246.059463 
L 355.995503 235.96396 
L 364.362715 225.254614 
L 371.909869 214.038428 
L 378.588689 202.42747 
L 384.356452 190.537754 
L 389.176265 178.488078 
L 393.017298 166.398838 
L 395.854981 154.390825 
L 397.671162 142.58402 
L 398.454224 131.096393 
L 398.199159 120.042723 
L 396.907597 109.533457 
L 394.587801 99.673598 
L 391.254609 90.561663 
L 386.929342 82.288696 
L 381.639668 74.937358 
L 375.419421 68.5811 
L 368.30839 63.283432 
L 360.352063 59.097287 
L 351.601331 56.064492 
L 342.11217 54.215348 
L 331.945279 53.568332 
L 321.16569 54.12991 
L 309.842356 55.894468 
L 298.047707 58.844378 
L 285.85719 62.950164 
L 273.348782 68.170803 
L 260.602495 74.454132 
L 247.69986 81.737369 
L 234.72341 89.947743 
L 221.756152 99.003219 
L 208.88103 108.813318 
L 196.180402 119.28002 
L 183.735509 130.298745 
L 171.625955 141.759398 
L 159.929199 153.547468 
L 148.720063 165.545172 
L 138.070244 177.632633 
L 128.047867 189.689078 
L 118.717041 201.594042 
L 110.137449 213.228575 
L 102.363974 224.476429 
L 95.446337 235.225218 
L 89.42879 245.367544 
L 84.349823 254.802069 
L 80.241924 263.434525 
L 77.13137 271.178661 
L 75.038059 277.957099 
L 73.975379 283.702112 
L 73.950129 288.356296 
L 74.96247 291.87315 
L 77.005926 294.217534 
L 80.067427 295.366023 
L 84.127389 295.307142 
L 89.159842 294.04148 
L 95.132596 291.581683 
L 102.007446 287.952327 
L 109.740415 283.189677 
L 118.28204 277.34132 
L 127.577683 270.465689 
L 137.567884 262.631485 
L 148.188739 253.916983 
L 159.372312 244.409257 
L 171.047065 234.203304 
L 183.13832 223.401099 
L 208.258795 200.44454 
L 285.255713 129.204335 
L 297.463508 118.234616 
L 309.279172 107.827365 
L 320.627124 98.086569 
L 331.434776 89.109554 
L 341.632996 80.986016 
L 351.156551 73.797123 
L 359.944521 67.614702 
L 367.940694 62.500528 
L 375.093922 58.5057 
L 381.358448 55.670131 
L 386.694201 54.022155 
L 391.067051 53.578237 
L 394.449025 54.342813 
L 396.818491 56.308243 
L 398.160293 59.45489 
L 398.465847 63.751314 
L 397.733198 69.154585 
L 395.967035 75.610716 
L 393.178652 83.0552 
L 389.385888 91.413653 
L 384.613003 100.602562 
L 378.890526 110.530113 
L 372.255062 121.097113 
L 364.749056 132.197981 
L 356.42052 143.7218 
L 347.322729 155.553429 
L 337.513877 167.574648 
L 327.056707 179.665348 
L 316.01811 191.70472 
L 304.468696 203.572472 
L 292.48234 215.150025 
L 280.135714 226.3217 
L 267.507796 236.975874 
L 254.67936 247.006092 
L 241.732465 256.312137 
L 228.749926 264.801026 
L 215.814789 272.387941 
L 203.009792 278.997075 
L 190.416845 284.562393 
L 178.1165 289.028287 
L 166.187436 292.350135 
L 154.705959 294.494748 
L 143.745512 295.440697 
L 133.376204 295.178529 
L 123.664362 293.710865 
L 114.67211 291.052369 
L 106.456967 287.229604 
L 99.071483 282.280766 
L 92.562899 276.255301 
L 86.972847 269.213415 
L 82.337086 261.225467 
L 78.685267 252.37127 
L 76.040752 242.739293 
L 74.420454 232.425775 
L 73.834739 221.533766 
L 74.287352 210.172094 
L 75.7754 198.454282 
L 78.289364 186.49741 
L 81.813162 174.420948 
L 86.324255 162.345559 
L 91.793786 150.391897 
L 98.18677 138.679398 
L 105.462313 127.325091 
L 113.573877 116.442423 
L 122.469575 106.140132 
L 132.092506 96.521152 
L 142.381114 87.681596 
L 153.269589 79.709783 
L 164.688281 72.685367 
L 176.564149 66.678532 
L 188.821229 61.749298 
L 201.381117 57.946915 
L 214.163473 55.309375 
L 227.086533 53.863032 
L 240.067633 53.622337 
L 253.023739 54.589696 
L 265.871977 56.755442 
L 278.53016 60.097937 
L 290.917321 64.583783 
L 302.954223 70.168158 
L 314.563871 76.795267 
L 325.672003 84.398893 
L 336.207566 92.903062 
L 346.103167 102.222805 
L 355.295508 112.265001 
L 363.72579 122.929313 
L 371.340088 134.109185 
L 378.089696 145.692912 
L 383.931439 157.564754 
L 388.827951 169.606091 
L 392.747911 181.69661 
L 395.666244 193.715506 
L 397.564282 205.54269 
L 398.429886 217.05999 
L 398.257517 228.152328 
L 397.048279 238.708874 
L 394.809906 248.624149 
L 391.556717 257.799084 
L 387.309521 266.142005 
L 382.095484 273.569553 
L 375.947961 280.007515 
L 368.906272 285.391564 
L 361.015462 289.667905 
L 352.326005 292.793809 
L 342.893483 294.738045 
L 332.778232 295.481185 
L 322.044956 295.015805 
L 310.76231 293.346554 
L 299.002466 290.490112 
L 286.840646 286.475018 
L 274.354644 281.34139 
L 261.624328 275.140522 
L 248.731129 267.934371 
L 235.757519 259.794938 
L 222.786485 250.80355 
L 209.900997 241.050045 
L 197.183478 230.631878 
L 184.715278 219.653143 
L 172.57615 208.223537 
L 160.843742 196.45726 
L 149.593104 184.471876 
L 138.896199 172.387141 
L 128.821452 160.3238 
L 119.433307 148.402387 
L 110.791816 136.742015 
L 102.952255 125.459193 
L 95.964771 114.666654 
L 89.874059 104.472233 
L 84.719079 94.97779 
L 80.532805 86.278191 
L 77.342016 78.460358 
L 75.167122 71.602405 
L 74.022033 65.772854 
L 73.914076 61.029953 
L 74.843941 57.421091 
L 76.805679 54.982325 
L 79.786743 53.738025 
L 83.768063 53.700621 
L 88.724173 54.870489 
L 94.623371 57.235939 
L 101.427921 60.773336 
L 109.094299 65.447336 
L 117.573464 71.211238 
L 126.81118 78.00745 
L 136.748357 85.768068 
L 147.321431 94.415549 
L 158.46277 103.863491 
L 170.101107 114.017494 
L 182.161997 124.776101 
L 207.240632 147.672177 
L 284.269028 218.957931 
L 296.504723 229.967796 
L 308.35442 240.423729 
L 319.742319 250.221257 
L 330.595579 259.262487 
L 340.844774 267.457082 
L 350.424346 274.723164 
L 359.273017 280.988133 
L 367.334186 286.189391 
L 374.55629 290.274969 
L 380.893131 293.204046 
L 386.304176 294.947355 
L 390.754811 295.487477 
L 394.216569 294.819016 
L 396.667305 292.94865 
L 398.091344 289.895068 
L 398.479576 285.688781 
L 397.829519 280.371815 
L 396.145329 273.997297 
L 393.437781 266.628918 
L 389.724193 258.340302 
L 385.02832 249.214264 
L 379.380199 239.341989 
L 372.815959 228.822119 
L 365.377589 217.759763 
L 357.112668 206.265453 
L 348.074065 194.454038 
L 338.319595 182.443531 
L 327.911653 170.353939 
L 316.916816 158.306057 
L 305.405412 146.420263 
L 293.451075 134.815316 
L 281.130272 123.607168 
L 268.521814 112.907809 
L 255.706352 102.824142 
L 242.765862 93.45692 
L 229.783118 84.899737 
L 216.841166 77.238094 
L 204.02279 70.548543 
L 191.409984 64.897925 
L 179.083427 60.342697 
L 167.121967 56.928376 
L 155.602115 54.689075 
L 144.597561 53.647168 
L 134.178695 53.813067 
L 124.412163 55.185113 
L 115.360438 57.749597 
L 107.081418 61.480897 
L 99.628063 66.341729 
L 93.048047 72.283527 
L 87.383461 79.246922 
L 82.670538 87.162338 
L 78.939426 95.950686 
L 76.21399 105.524156 
L 74.511664 115.787094 
L 73.843338 126.636955 
L 74.213285 137.965332 
L 75.61914 149.659035 
L 78.051911 161.601223 
L 81.496035 173.672576 
L 85.929482 185.75248 
L 91.323893 197.720236 
L 97.644762 209.456267 
L 104.851657 220.843309 
L 112.89848 231.767589 
L 121.733756 242.119953 
L 131.300972 251.796964 
L 141.538929 260.701934 
L 152.382139 268.745885 
L 163.761243 275.848447 
L 175.603454 281.938652 
L 187.833021 286.955649 
L 200.371718 290.84931 
L 213.139338 293.58073 
L 226.054214 295.122619 
L 239.033734 295.45957 
L 251.994873 294.588217 
L 264.854724 292.517265 
L 277.531029 289.267408 
L 289.942701 284.871116 
L 302.010349 279.372316 
L 313.656781 272.825949 
L 324.8075 265.297427 
L 335.391179 256.861969 
L 345.340118 247.603862 
L 354.590678 237.615609 
L 363.083687 226.997009 
L 370.76482 215.85416 
L 377.584942 204.298397 
L 383.500429 192.445182 
L 388.473441 180.412948 
L 392.472169 168.321918 
L 395.471033 156.292901 
L 397.450852 144.446086 
L 398.398962 132.899844 
L 398.309297 121.76954 
L 397.182431 111.166386 
L 395.025573 101.196323 
L 391.852518 91.95897 
L 387.683565 83.546623 
L 382.545379 76.043336 
L 376.470827 69.524079 
L 369.498767 64.05399 
L 361.673794 59.687725 
L 353.045964 56.46891 
L 343.670463 54.429706 
L 333.607264 53.590488 
L 322.920736 53.959641 
L 311.679237 55.533478 
L 299.954674 58.296272 
L 287.822044 62.220419 
L 275.358955 67.26671 
L 262.645128 73.384725 
L 249.761888 80.513333 
L 236.791643 88.581308 
L 223.81736 97.508038 
L 210.922029 107.20433 
L 198.188136 117.573302 
L 185.697135 128.51135 
L 173.528925 139.909185 
L 161.761342 151.652923 
L 150.469658 163.625226 
L 139.726101 175.706469 
L 129.599394 187.775941 
L 120.154312 199.713048 
L 111.451272 211.398518 
L 103.545943 222.715594 
L 96.488894 233.551199 
L 90.325264 243.797067 
L 85.094481 253.350826 
L 80.830002 262.117017 
L 77.559107 270.008051 
L 75.302718 276.945084 
L 74.075268 282.858803 
L 73.884609 287.69012 
L 74.731959 291.390763 
L 76.6119 293.923755 
L 79.512406 295.263788 
L 83.414922 295.397473 
L 88.294488 294.323474 
L 94.11989 292.052522 
L 100.853865 288.607307 
L 108.453339 284.022254 
L 116.869701 278.343174 
L 126.049116 271.62681 
L 135.932865 263.940272 
L 146.457728 255.360359 
L 157.556381 245.9728 
L 169.15783 235.871392 
L 181.187866 225.157065 
L 206.223643 202.322924 
L 245.005542 166.291651 
L 270.715886 142.480414 
L 283.280392 130.996142 
L 295.54349 119.946829 
L 307.426737 109.442877 
L 318.854122 99.589237 
L 329.752549 90.484365 
L 340.052304 82.219233 
L 349.687504 74.876423 
L 358.596517 68.529303 
L 366.722355 63.24129 
L 374.013041 59.065221 
L 380.42194 56.042822 
L 385.908056 54.204292 
L 390.436297 53.568 
L 393.977698 54.140304 
L 396.509605 55.915486 
L 398.015824 58.875809 
L 398.486719 62.991694 
L 397.919278 68.222017 
L 396.317131 74.514518 
L 393.690527 81.806324 
L 390.056266 90.024578 
L 385.437596 99.087167 
L 379.86406 108.903539 
L 373.37131 119.375613 
L 366.000878 130.398755 
L 357.799908 141.862826 
L 348.820859 153.65328 
L 339.121167 165.652311 
L 328.762876 177.740029 
L 317.812244 189.795657 
L 306.339317 201.69874 
L 294.417484 213.330345 
L 282.123004 224.574254 
L 269.534518 235.318121 
L 256.732551 245.454598 
L 243.798991 254.882402 
L 230.816569 263.507336 
L 217.868328 271.243222 
L 205.037093 278.012765 
L 192.40494 283.748326 
L 180.052671 288.392598 
L 168.059299 291.899176 
L 156.501541 294.233024 
L 145.453326 295.370822 
L 134.985326 295.301203 
L 125.1645 294.024862 
L 116.053668 291.554551 
L 107.711107 287.914953 
L 100.190183 283.142435 
L 93.539003 277.28468 
L 87.800113 270.400219 
L 83.01022 262.557838 
L 79.199965 253.835896 
L 76.39372 244.321539 
L 74.609435 234.109832 
L 73.858524 223.302807 
L 74.145791 212.008444 
L 75.469396 200.339592 
L 77.820875 188.412843 
L 81.185185 176.347366 
L 85.540806 164.263714 
L 90.859877 152.282623 
L 97.108375 140.523804 
L 104.246331 129.104747 
L 112.228085 118.139549 
L 121.002581 107.737769 
L 130.513694 98.003339 
L 140.700584 89.033521 
L 151.49809 80.917941 
L 162.837144 73.737684 
L 174.645216 67.564495 
L 186.846774 62.460054 
L 199.36377 58.475362 
L 212.116138 55.650234 
L 225.022305 54.012897 
L 237.999718 53.579711 
L 250.965364 54.355004 
L 263.836307 56.33103 
L 276.530218 59.488044 
L 288.965899 63.794503 
L 301.063804 69.207379 
L 312.746547 75.672588 
L 323.939399 83.12553 
L 334.570764 91.49174 
L 344.572637 100.687625 
L 353.881041 110.621302 
L 362.436434 121.193517 
L 370.184089 132.298637 
L 377.074449 143.825702 
L 383.063439 155.659538 
L 388.11275 167.681906 
L 392.190083 179.772681 
L 395.269357 191.811057 
L 397.330876 203.67675 
L 398.361453 215.251202 
L 398.354496 226.418765 
L 397.310048 237.067857 
L 395.234792 247.092075 
L 392.142001 256.39126 
L 388.051459 264.872499 
L 382.989332 272.451049 
L 376.987999 279.051188 
L 370.085849 284.60697 
L 362.327033 289.062883 
L 353.761179 292.374405 
L 344.44308 294.508448 
L 334.432341 295.44369 
L 323.792995 295.170787 
L 312.593099 293.692464 
L 300.904293 291.023494 
L 288.801346 287.190542 
L 276.361676 282.231908 
L 263.664853 276.197135 
L 250.792095 269.146522 
L 237.825742 261.150516 
L 224.848736 252.28901 
L 211.944085 242.650545 
L 199.194335 232.331426 
L 186.68104 221.434759 
L 174.484243 210.069418 
L 162.681961 198.348963 
L 151.34969 186.390501 
L 140.559917 174.313516 
L 130.38166 162.238678 
L 120.880024 150.286635 
L 112.115788 138.576807 
L 104.145013 127.226195 
L 97.018686 116.348212 
L 90.782389 106.051545 
L 85.476014 96.439076 
L 81.133504 87.60685 
L 77.782635 79.643115 
L 75.444843 72.627442 
L 74.135081 66.629929 
L 73.861727 61.710502 
L 74.626529 57.918315 
L 76.424596 55.291256 
L 79.244426 53.855575 
L 83.067981 53.625617 
L 87.870804 54.60368 
L 93.622173 56.779991 
L 100.2853 60.132804 
L 107.817562 64.62862 
L 116.170779 70.222519 
L 125.291519 76.858607 
L 135.121441 84.470579 
L 145.597666 92.982379 
L 156.653182 102.308959 
L 168.217272 112.357132 
L 180.215965 123.0265 
L 192.572511 134.210458 
L 218.041216 157.671131 
L 269.704768 205.646519 
L 282.289843 217.160546 
L 294.579846 228.248606 
L 306.496163 238.799911 
L 317.962569 248.709037 
L 328.90572 257.876974 
L 339.255617 266.212119 
L 348.946054 273.631191 
L 357.915047 280.06006 
L 366.105225 285.434491 
L 373.464198 289.700786 
L 379.944894 292.816316 
L 385.50586 294.749951 
L 390.111522 295.482373 
L 393.732422 295.006262 
L 396.345397 293.326376 
L 397.933734 290.4595 
L 398.487273 286.434278 
L 398.002472 281.29093 
L 396.482433 275.080845 
L 393.93688 267.866074 
L 390.382094 259.718703 
L 385.840814 250.720139 
L 380.342089 240.960291 
L 373.921093 230.536678 
L 366.618897 219.553449 
L 358.48221 208.120344 
L 349.563081 196.351599 
L 339.91856 184.364804 
L 329.61034 172.279726 
L 318.704358 160.217117 
L 307.270375 148.297501 
L 295.38153 136.639975 
L 283.113871 125.361017 
L 270.545868 114.573323 
L 257.757915 104.384681 
L 244.83181 94.896891 
L 231.850237 86.204753 
L 218.896233 78.395115 
L 206.052659 71.546009 
L 193.401671 65.725869 
L 181.024192 60.992848 
L 168.999396 57.394236 
L 157.404199 54.965989 
L 146.312772 53.732371 
L 135.796063 53.705706 
L 125.921341 54.886262 
L 116.751772 57.262242 
L 108.34601 60.809907 
L 100.757822 65.493809 
L 94.035748 71.267148 
L 88.222785 78.07224 
L 83.356117 85.841089 
L 79.466874 94.496072 
L 76.579934 103.950712 
L 74.713763 114.110541 
L 73.880298 124.874044 
L 74.084871 136.133678 
L 75.326173 147.776938 
L 77.596264 159.68749 
L 80.880624 171.746328 
L 85.158243 183.832962 
L 90.401759 195.826629 
L 96.577632 207.60749 
L 103.646357 219.057836 
L 111.562719 230.063258 
L 120.27608 240.513794 
L 129.730703 250.305026 
L 139.866113 259.339122 
L 150.617476 267.525817 
L 161.916021 274.783313 
L 173.689475 281.039095 
L 185.862529 286.230657 
L 198.357316 290.306126 
L 211.093913 293.224783 
L 223.990849 294.957464 
L 236.965627 295.486858 
L 249.935254 294.807675 
L 262.816767 292.926701 
L 275.527769 289.862729 
L 287.986954 285.646376 
L 300.114624 280.319767 
L 311.833204 273.936127 
L 323.067736 266.559237 
L 333.746356 258.262805 
L 343.800757 249.129726 
L 353.166627 239.251255 
L 361.784055 228.726095 
L 369.597919 217.659409 
L 376.558237 206.161773 
L 382.620487 194.348065 
L 387.745891 182.336326 
L 391.901665 170.246573 
L 395.061224 158.199602 
L 397.204359 146.315783 
L 398.317362 134.713854 
L 398.393112 123.50974 
L 397.431125 112.815386 
L 395.437555 102.737649 
L 392.425153 93.37722 
L 388.413189 84.827628 
L 383.427326 77.174295 
L 377.499456 70.493693 
L 370.667497 64.85257 
L 362.975151 60.307292 
L 354.471621 56.903274 
L 345.211303 54.674526 
L 335.25343 53.643319 
L 324.661698 53.819955 
L 313.503859 55.20267 
L 301.851285 57.777648 
L 289.778512 61.519161 
L 277.362765 66.389824 
L 264.683462 72.340972 
L 251.821708 79.313143 
L 238.859774 87.236674 
L 225.880572 96.032394 
L 212.967124 105.61242 
L 200.202034 115.881031 
L 187.666953 126.735627 
L 175.442063 138.067753 
L 163.605563 149.764181 
L 152.233164 161.708045 
L 141.397613 173.780006 
L 131.168219 185.859444 
L 121.610415 197.825666 
L 112.785339 209.559109 
L 104.749441 220.942536 
L 97.554124 231.862209 
L 91.245413 242.209021 
L 85.863662 251.87959 
L 81.443297 260.777292 
L 78.012591 268.813223 
L 75.593491 275.907091 
L 74.20147 281.988017 
L 73.845432 286.995241 
L 74.527655 290.878733 
L 76.243775 293.599692 
L 78.982814 295.130929 
L 82.727252 295.457145 
L 87.453138 294.575081 
L 93.130242 292.493551 
L 99.722249 289.233351 
L 107.186994 284.827057 
L 115.476727 279.318695 
L 124.538423 272.763303 
L 134.314117 265.22638 
L 144.741279 256.783232 
L 155.75321 247.518222 
L 167.279472 237.523921 
L 179.246336 226.900189 
L 191.577254 215.753176 
L 217.013926 192.338928 
L 268.692288 144.342041 
L 281.297422 132.798991 
L 293.613831 121.672886 
L 305.562733 111.074897 
L 317.067696 101.110914 
L 328.055128 91.880493 
L 338.454745 83.475863 
L 348.200027 75.981 
L 357.228636 69.47079 
L 365.482821 64.01028 
L 372.909782 59.654031 
L 379.462013 56.445568 
L 385.097602 54.416949 
L 389.780499 53.588445 
L 393.480751 53.968332 
L 396.174688 55.552815 
L 397.845079 58.326063 
L 398.481239 62.260366 
L 398.079098 67.316414 
L 396.641229 73.443688 
L 394.176829 80.580967 
L 390.701662 88.656938 
L 386.237957 97.590908 
L 380.814267 107.293611 
L 374.465284 117.668102 
L 367.231621 128.610723 
L 359.159549 140.012137 
L 350.3007 151.758426 
L 340.711742 163.732225 
L 330.454011 175.813896 
L 319.593122 187.882722 
L 308.198547 199.818116 
L 296.343172 211.500823 
L 284.102832 222.814114 
L 271.555823 233.64495 
L 258.782402 243.885113 
L 245.864277 253.432286 
L 232.884079 262.191077 
L 219.924838 270.073972 
L 207.069447 277.002206 
L 194.400138 282.906556 
L 181.997951 287.728027 
L 169.942218 291.418445 
L 158.310054 293.940936 
L 147.175865 295.270296 
L 136.610873 295.393243 
L 126.682656 294.308548 
L 117.454723 292.027049 
L 108.986099 288.571542 
L 101.330957 283.976554 
L 94.538261 278.287995 
L 88.651462 271.562705 
L 83.708216 263.86788 
L 79.740143 255.280405 
L 76.772625 245.886081 
L 76.772625 245.886081 
" clip-path="url(#pb9cdb79d55)" style="fill: none; stroke: #1f77b4; stroke-width: 1.5; stroke-linecap: square"/>
   </g>
   <g id="patch_3">
    <path d="M 57.6 307.584 
L 57.6 41.472 
" style="fill: none; stroke: #000000; stroke-width: 0.8; stroke-linejoin: miter; stroke-linecap: square"/>
   </g>
   <g id="patch_4">
    <path d="M 414.72 307.584 
L 414.72 41.472 
" style="fill: none; stroke: #000000; stroke-width: 0.8; stroke-linejoin: miter; stroke-linecap: square"/>
   </g>
   <g id="patch_5">
    <path d="M 57.6 307.584 
L 414.72 307.584 
" style="fill: none; stroke: #000000; stroke-width: 0.8; stroke-linejoin: miter; stroke-linecap: square"/>
   </g>
   <g id="patch_6">
    <path d="M 57.6 41.472 
L 414.72 41.472 
" style="fill: none; stroke: #000000; stroke-width: 0.8; stroke-linejoin: miter; stroke-linecap: square"/>
   </g>
  </g>
 </g>
 <defs>
  <clipPath id="pb9cdb79d55">
   <rect x="57.6" y="41.472" width="357.12" height="266.112"/>
  </clipPath>
 </defs>
</svg>
