<?xml version="1.0" encoding="utf-8" standalone="no"?>
<!DOCTYPE svg PUBLIC "-//W3C//DTD SVG 1.1//EN"
  "http://www.w3.org/Graphics/SVG/1.1/DTD/svg11.dtd">
<svg xmlns:xlink="http://www.w3.org/1999/xlink" width="460.8pt" height="345.6pt" viewBox="0 0 460.8 345.6" xmlns="http://www.w3.org/2000/svg" version="1.1">
 <metadata>
  <rdf:RDF xmlns:dc="http://purl.org/dc/elements/1.1/" xmlns:cc="http://creativecommons.org/ns#" xmlns:rdf="http://www.w3.org/1999/02/22-rdf-syntax-ns#">
   <cc:Work>
    <dc:type rdf:resource="http://purl.org/dc/dcmitype/StillImage"/>
    <dc:date>2022-05-01T00:02:50.106977</dc:date>
    <dc:format>image/svg+xml</dc:format>
    <dc:creator>
     <cc:Agent>
      <dc:title>Matplotlib v3.5.1, https://matplotlib.org/</dc:title>
     </cc:Agent>
    </dc:creator>
   </cc:Work>
  </rdf:RDF>
 </metadata>
 <defs>
  <style type="text/css">*{stroke-linejoin: round; stroke-linecap: butt}</style>
 </defs>
 <g id="figure_1">
  <g id="patch_1">
   <path d="M 0 345.6 
L 460.8 345.6 
L 460.8 0 
L 0 0 
z
" style="fill: #ffffff"/>
  </g>
  <g id="axes_1">
   <g id="patch_2">
    <path d="M 57.6 307.584 
L 414.72 307.584 
L 414.72 41.472 
L 57.6 41.472 
z
" style="fill: #ffffff"/>
   </g>
   <g id="matplotlib.axis_1">
    <g id="xtick_1">
     <g id="line2d_1">
      <defs>
       <path id="m8a283559c6" d="M 0 0 
L 0 3.5 
" style="stroke: #000000; stroke-width: 0.8"/>
      </defs>
      <g>
       <use xlink:href="#m8a283559c6" x="73.832727" y="307.584" style="stroke: #000000; stroke-width: 0.8"/>
      </g>
     </g>
     <g id="text_1">
      <!-- 0.0 -->
      <g transform="translate(65.881165 322.182437)scale(0.1 -0.1)">
       <defs>
        <path id="DejaVuSans-30" d="M 2034 4250 
Q 1547 4250 1301 3770 
Q 1056 3291 1056 2328 
Q 1056 1369 1301 889 
Q 1547 409 2034 409 
Q 2525 409 2770 889 
Q 3016 1369 3016 2328 
Q 3016 3291 2770 3770 
Q 2525 4250 2034 4250 
z
M 2034 4750 
Q 2819 4750 3233 4129 
Q 3647 3509 3647 2328 
Q 3647 1150 3233 529 
Q 2819 -91 2034 -91 
Q 1250 -91 836 529 
Q 422 1150 422 2328 
Q 422 3509 836 4129 
Q 1250 4750 2034 4750 
z
" transform="scale(0.015625)"/>
        <path id="DejaVuSans-2e" d="M 684 794 
L 1344 794 
L 1344 0 
L 684 0 
L 684 794 
z
" transform="scale(0.015625)"/>
       </defs>
       <use xlink:href="#DejaVuSans-30"/>
       <use xlink:href="#DejaVuSans-2e" x="63.623047"/>
       <use xlink:href="#DejaVuSans-30" x="95.410156"/>
      </g>
     </g>
    </g>
    <g id="xtick_2">
     <g id="line2d_2">
      <g>
       <use xlink:href="#m8a283559c6" x="141.674352" y="307.584" style="stroke: #000000; stroke-width: 0.8"/>
      </g>
     </g>
     <g id="text_2">
      <!-- 0.1 -->
      <g transform="translate(133.722789 322.182437)scale(0.1 -0.1)">
       <defs>
        <path id="DejaVuSans-31" d="M 794 531 
L 1825 531 
L 1825 4091 
L 703 3866 
L 703 4441 
L 1819 4666 
L 2450 4666 
L 2450 531 
L 3481 531 
L 3481 0 
L 794 0 
L 794 531 
z
" transform="scale(0.015625)"/>
       </defs>
       <use xlink:href="#DejaVuSans-30"/>
       <use xlink:href="#DejaVuSans-2e" x="63.623047"/>
       <use xlink:href="#DejaVuSans-31" x="95.410156"/>
      </g>
     </g>
    </g>
    <g id="xtick_3">
     <g id="line2d_3">
      <g>
       <use xlink:href="#m8a283559c6" x="209.515977" y="307.584" style="stroke: #000000; stroke-width: 0.8"/>
      </g>
     </g>
     <g id="text_3">
      <!-- 0.2 -->
      <g transform="translate(201.564414 322.182437)scale(0.1 -0.1)">
       <defs>
        <path id="DejaVuSans-32" d="M 1228 531 
L 3431 531 
L 3431 0 
L 469 0 
L 469 531 
Q 828 903 1448 1529 
Q 2069 2156 2228 2338 
Q 2531 2678 2651 2914 
Q 2772 3150 2772 3378 
Q 2772 3750 2511 3984 
Q 2250 4219 1831 4219 
Q 1534 4219 1204 4116 
Q 875 4013 500 3803 
L 500 4441 
Q 881 4594 1212 4672 
Q 1544 4750 1819 4750 
Q 2544 4750 2975 4387 
Q 3406 4025 3406 3419 
Q 3406 3131 3298 2873 
Q 3191 2616 2906 2266 
Q 2828 2175 2409 1742 
Q 1991 1309 1228 531 
z
" transform="scale(0.015625)"/>
       </defs>
       <use xlink:href="#DejaVuSans-30"/>
       <use xlink:href="#DejaVuSans-2e" x="63.623047"/>
       <use xlink:href="#DejaVuSans-32" x="95.410156"/>
      </g>
     </g>
    </g>
    <g id="xtick_4">
     <g id="line2d_4">
      <g>
       <use xlink:href="#m8a283559c6" x="277.357601" y="307.584" style="stroke: #000000; stroke-width: 0.8"/>
      </g>
     </g>
     <g id="text_4">
      <!-- 0.3 -->
      <g transform="translate(269.406039 322.182437)scale(0.1 -0.1)">
       <defs>
        <path id="DejaVuSans-33" d="M 2597 2516 
Q 3050 2419 3304 2112 
Q 3559 1806 3559 1356 
Q 3559 666 3084 287 
Q 2609 -91 1734 -91 
Q 1441 -91 1130 -33 
Q 819 25 488 141 
L 488 750 
Q 750 597 1062 519 
Q 1375 441 1716 441 
Q 2309 441 2620 675 
Q 2931 909 2931 1356 
Q 2931 1769 2642 2001 
Q 2353 2234 1838 2234 
L 1294 2234 
L 1294 2753 
L 1863 2753 
Q 2328 2753 2575 2939 
Q 2822 3125 2822 3475 
Q 2822 3834 2567 4026 
Q 2313 4219 1838 4219 
Q 1578 4219 1281 4162 
Q 984 4106 628 3988 
L 628 4550 
Q 988 4650 1302 4700 
Q 1616 4750 1894 4750 
Q 2613 4750 3031 4423 
Q 3450 4097 3450 3541 
Q 3450 3153 3228 2886 
Q 3006 2619 2597 2516 
z
" transform="scale(0.015625)"/>
       </defs>
       <use xlink:href="#DejaVuSans-30"/>
       <use xlink:href="#DejaVuSans-2e" x="63.623047"/>
       <use xlink:href="#DejaVuSans-33" x="95.410156"/>
      </g>
     </g>
    </g>
    <g id="xtick_5">
     <g id="line2d_5">
      <g>
       <use xlink:href="#m8a283559c6" x="345.199226" y="307.584" style="stroke: #000000; stroke-width: 0.8"/>
      </g>
     </g>
     <g id="text_5">
      <!-- 0.4 -->
      <g transform="translate(337.247663 322.182437)scale(0.1 -0.1)">
       <defs>
        <path id="DejaVuSans-34" d="M 2419 4116 
L 825 1625 
L 2419 1625 
L 2419 4116 
z
M 2253 4666 
L 3047 4666 
L 3047 1625 
L 3713 1625 
L 3713 1100 
L 3047 1100 
L 3047 0 
L 2419 0 
L 2419 1100 
L 313 1100 
L 313 1709 
L 2253 4666 
z
" transform="scale(0.015625)"/>
       </defs>
       <use xlink:href="#DejaVuSans-30"/>
       <use xlink:href="#DejaVuSans-2e" x="63.623047"/>
       <use xlink:href="#DejaVuSans-34" x="95.410156"/>
      </g>
     </g>
    </g>
    <g id="xtick_6">
     <g id="line2d_6">
      <g>
       <use xlink:href="#m8a283559c6" x="413.04085" y="307.584" style="stroke: #000000; stroke-width: 0.8"/>
      </g>
     </g>
     <g id="text_6">
      <!-- 0.5 -->
      <g transform="translate(405.089288 322.182437)scale(0.1 -0.1)">
       <defs>
        <path id="DejaVuSans-35" d="M 691 4666 
L 3169 4666 
L 3169 4134 
L 1269 4134 
L 1269 2991 
Q 1406 3038 1543 3061 
Q 1681 3084 1819 3084 
Q 2600 3084 3056 2656 
Q 3513 2228 3513 1497 
Q 3513 744 3044 326 
Q 2575 -91 1722 -91 
Q 1428 -91 1123 -41 
Q 819 9 494 109 
L 494 744 
Q 775 591 1075 516 
Q 1375 441 1709 441 
Q 2250 441 2565 725 
Q 2881 1009 2881 1497 
Q 2881 1984 2565 2268 
Q 2250 2553 1709 2553 
Q 1456 2553 1204 2497 
Q 953 2441 691 2322 
L 691 4666 
z
" transform="scale(0.015625)"/>
       </defs>
       <use xlink:href="#DejaVuSans-30"/>
       <use xlink:href="#DejaVuSans-2e" x="63.623047"/>
       <use xlink:href="#DejaVuSans-35" x="95.410156"/>
      </g>
     </g>
    </g>
   </g>
   <g id="matplotlib.axis_2">
    <g id="ytick_1">
     <g id="line2d_7">
      <defs>
       <path id="mb10367beb6" d="M 0 0 
L -3.5 0 
" style="stroke: #000000; stroke-width: 0.8"/>
      </defs>
      <g>
       <use xlink:href="#mb10367beb6" x="57.6" y="295.489185" style="stroke: #000000; stroke-width: 0.8"/>
      </g>
     </g>
     <g id="text_7">
      <!-- −1.00 -->
      <g transform="translate(19.954687 299.288403)scale(0.1 -0.1)">
       <defs>
        <path id="DejaVuSans-2212" d="M 678 2272 
L 4684 2272 
L 4684 1741 
L 678 1741 
L 678 2272 
z
" transform="scale(0.015625)"/>
       </defs>
       <use xlink:href="#DejaVuSans-2212"/>
       <use xlink:href="#DejaVuSans-31" x="83.789062"/>
       <use xlink:href="#DejaVuSans-2e" x="147.412109"/>
       <use xlink:href="#DejaVuSans-30" x="179.199219"/>
       <use xlink:href="#DejaVuSans-30" x="242.822266"/>
      </g>
     </g>
    </g>
    <g id="ytick_2">
     <g id="line2d_8">
      <g>
       <use xlink:href="#mb10367beb6" x="57.6" y="265.248942" style="stroke: #000000; stroke-width: 0.8"/>
      </g>
     </g>
     <g id="text_8">
      <!-- −0.75 -->
      <g transform="translate(19.954687 269.048161)scale(0.1 -0.1)">
       <defs>
        <path id="DejaVuSans-37" d="M 525 4666 
L 3525 4666 
L 3525 4397 
L 1831 0 
L 1172 0 
L 2766 4134 
L 525 4134 
L 525 4666 
z
" transform="scale(0.015625)"/>
       </defs>
       <use xlink:href="#DejaVuSans-2212"/>
       <use xlink:href="#DejaVuSans-30" x="83.789062"/>
       <use xlink:href="#DejaVuSans-2e" x="147.412109"/>
       <use xlink:href="#DejaVuSans-37" x="179.199219"/>
       <use xlink:href="#DejaVuSans-35" x="242.822266"/>
      </g>
     </g>
    </g>
    <g id="ytick_3">
     <g id="line2d_9">
      <g>
       <use xlink:href="#mb10367beb6" x="57.6" y="235.008699" style="stroke: #000000; stroke-width: 0.8"/>
      </g>
     </g>
     <g id="text_9">
      <!-- −0.50 -->
      <g transform="translate(19.954687 238.807918)scale(0.1 -0.1)">
       <use xlink:href="#DejaVuSans-2212"/>
       <use xlink:href="#DejaVuSans-30" x="83.789062"/>
       <use xlink:href="#DejaVuSans-2e" x="147.412109"/>
       <use xlink:href="#DejaVuSans-35" x="179.199219"/>
       <use xlink:href="#DejaVuSans-30" x="242.822266"/>
      </g>
     </g>
    </g>
    <g id="ytick_4">
     <g id="line2d_10">
      <g>
       <use xlink:href="#mb10367beb6" x="57.6" y="204.768457" style="stroke: #000000; stroke-width: 0.8"/>
      </g>
     </g>
     <g id="text_10">
      <!-- −0.25 -->
      <g transform="translate(19.954687 208.567675)scale(0.1 -0.1)">
       <use xlink:href="#DejaVuSans-2212"/>
       <use xlink:href="#DejaVuSans-30" x="83.789062"/>
       <use xlink:href="#DejaVuSans-2e" x="147.412109"/>
       <use xlink:href="#DejaVuSans-32" x="179.199219"/>
       <use xlink:href="#DejaVuSans-35" x="242.822266"/>
      </g>
     </g>
    </g>
    <g id="ytick_5">
     <g id="line2d_11">
      <g>
       <use xlink:href="#mb10367beb6" x="57.6" y="174.528214" style="stroke: #000000; stroke-width: 0.8"/>
      </g>
     </g>
     <g id="text_11">
      <!-- 0.00 -->
      <g transform="translate(28.334375 178.327433)scale(0.1 -0.1)">
       <use xlink:href="#DejaVuSans-30"/>
       <use xlink:href="#DejaVuSans-2e" x="63.623047"/>
       <use xlink:href="#DejaVuSans-30" x="95.410156"/>
       <use xlink:href="#DejaVuSans-30" x="159.033203"/>
      </g>
     </g>
    </g>
    <g id="ytick_6">
     <g id="line2d_12">
      <g>
       <use xlink:href="#mb10367beb6" x="57.6" y="144.287971" style="stroke: #000000; stroke-width: 0.8"/>
      </g>
     </g>
     <g id="text_12">
      <!-- 0.25 -->
      <g transform="translate(28.334375 148.08719)scale(0.1 -0.1)">
       <use xlink:href="#DejaVuSans-30"/>
       <use xlink:href="#DejaVuSans-2e" x="63.623047"/>
       <use xlink:href="#DejaVuSans-32" x="95.410156"/>
       <use xlink:href="#DejaVuSans-35" x="159.033203"/>
      </g>
     </g>
    </g>
    <g id="ytick_7">
     <g id="line2d_13">
      <g>
       <use xlink:href="#mb10367beb6" x="57.6" y="114.047729" style="stroke: #000000; stroke-width: 0.8"/>
      </g>
     </g>
     <g id="text_13">
      <!-- 0.50 -->
      <g transform="translate(28.334375 117.846947)scale(0.1 -0.1)">
       <use xlink:href="#DejaVuSans-30"/>
       <use xlink:href="#DejaVuSans-2e" x="63.623047"/>
       <use xlink:href="#DejaVuSans-35" x="95.410156"/>
       <use xlink:href="#DejaVuSans-30" x="159.033203"/>
      </g>
     </g>
    </g>
    <g id="ytick_8">
     <g id="line2d_14">
      <g>
       <use xlink:href="#mb10367beb6" x="57.6" y="83.807486" style="stroke: #000000; stroke-width: 0.8"/>
      </g>
     </g>
     <g id="text_14">
      <!-- 0.75 -->
      <g transform="translate(28.334375 87.606705)scale(0.1 -0.1)">
       <use xlink:href="#DejaVuSans-30"/>
       <use xlink:href="#DejaVuSans-2e" x="63.623047"/>
       <use xlink:href="#DejaVuSans-37" x="95.410156"/>
       <use xlink:href="#DejaVuSans-35" x="159.033203"/>
      </g>
     </g>
    </g>
    <g id="ytick_9">
     <g id="line2d_15">
      <g>
       <use xlink:href="#mb10367beb6" x="57.6" y="53.567243" style="stroke: #000000; stroke-width: 0.8"/>
      </g>
     </g>
     <g id="text_15">
      <!-- 1.00 -->
      <g transform="translate(28.334375 57.366462)scale(0.1 -0.1)">
       <use xlink:href="#DejaVuSans-31"/>
       <use xlink:href="#DejaVuSans-2e" x="63.623047"/>
       <use xlink:href="#DejaVuSans-30" x="95.410156"/>
       <use xlink:href="#DejaVuSans-30" x="159.033203"/>
      </g>
     </g>
    </g>
   </g>
   <g id="line2d_16">
    <path d="M 73.832727 174.528214 
L 76.546385 127.423793 
L 77.9032 106.228512 
L 79.259999 87.756125 
L 80.616777 72.743067 
L 81.295155 66.726906 
L 81.973527 61.787861 
L 82.65189 57.97528 
L 83.330244 55.327258 
L 84.008589 53.870252 
L 84.686924 53.618821 
L 85.365248 54.575476 
L 86.04356 56.730659 
L 86.72186 60.062837 
L 87.400148 64.538714 
L 88.078421 70.113571 
L 89.434925 84.326988 
L 90.791367 102.136442 
L 92.14774 122.831929 
L 94.182162 157.458201 
L 98.250437 228.055916 
L 99.606341 248.539138 
L 100.962141 266.071778 
L 102.317833 279.954865 
L 102.995637 285.348535 
L 103.673411 289.634925 
L 104.351156 292.771206 
L 105.02887 294.726042 
L 105.706553 295.479902 
L 106.384204 295.025252 
L 107.061822 293.366636 
L 107.739408 290.520625 
L 108.416959 286.515657 
L 109.094476 281.391747 
L 110.449403 268.002556 
L 111.804183 250.886839 
L 113.158812 230.726945 
L 115.190458 196.562767 
L 119.252616 125.557174 
L 120.606313 104.559578 
L 121.959822 86.351411 
L 123.313139 71.658575 
L 123.989724 65.81961 
L 124.666258 61.066826 
L 125.342742 57.447711 
L 126.019174 54.998425 
L 126.695554 53.743441 
L 127.371881 53.695299 
L 128.048154 54.85448 
L 128.724373 57.209401 
L 129.400538 60.736533 
L 130.076646 65.400633 
L 130.752699 71.1551 
L 132.104633 85.694828 
L 133.456333 103.776062 
L 134.807795 124.677962 
L 137.509982 171.531354 
L 140.211151 218.857885 
L 142.236332 250.137366 
L 143.586112 267.388235 
L 144.935613 280.937067 
L 145.610258 286.148025 
L 146.28483 290.243714 
L 146.95933 293.183213 
L 147.633757 294.937149 
L 148.30811 295.488 
L 148.982389 294.83026 
L 149.656592 292.970503 
L 150.33072 289.927308 
L 151.004771 285.731085 
L 151.678745 280.423759 
L 153.026459 266.698488 
L 154.373856 249.298679 
L 155.72093 228.918008 
L 157.740927 194.559856 
L 161.778636 123.704401 
L 163.123842 102.910427 
L 164.468692 84.971628 
L 165.813179 70.603167 
L 166.485284 64.943049 
L 167.157298 60.37787 
L 167.829217 56.953243 
L 168.501043 54.703387 
L 169.172774 53.65078 
L 169.84441 53.805941 
L 170.51595 55.167319 
L 171.187393 57.721312 
L 171.858739 61.4424 
L 172.529987 66.293405 
L 173.201136 72.225856 
L 174.543135 87.087784 
L 175.884732 105.435686 
L 177.896359 137.862723 
L 183.925551 242.030758 
L 185.264177 260.62646 
L 186.602358 275.789696 
L 187.271279 281.889184 
L 187.940087 286.915956 
L 188.608781 290.819788 
L 189.277361 293.561672 
L 189.945824 295.114214 
L 190.614172 295.4619 
L 191.282403 294.601256 
L 191.950516 292.540883 
L 192.618512 289.301365 
L 193.286388 284.915073 
L 193.954145 279.425831 
L 195.289298 265.36836 
L 196.623966 247.689379 
L 197.958142 227.093693 
L 199.958473 192.551281 
L 203.955713 121.865997 
L 205.287093 101.281523 
L 206.617946 83.617164 
L 207.948269 69.577141 
L 208.613229 64.09747 
L 209.278054 59.721187 
L 209.942745 56.492017 
L 210.607299 54.442226 
L 211.271716 53.592294 
L 211.935996 53.950714 
L 212.600137 55.513905 
L 213.26414 58.266247 
L 213.928004 62.180241 
L 214.591727 67.216778 
L 215.918751 80.445477 
L 217.245207 97.424958 
L 218.571089 117.478302 
L 220.558824 151.547241 
L 225.191708 233.457316 
L 226.514037 253.269246 
L 227.835755 269.94202 
L 229.156857 282.810947 
L 229.817175 287.652113 
L 230.477337 291.362983 
L 231.137343 293.906478 
L 231.797191 295.257185 
L 232.456882 295.401608 
L 233.116414 294.338304 
L 233.775786 292.077897 
L 234.434999 288.642973 
L 235.094051 284.067852 
L 235.752942 278.398247 
L 237.070237 264.01255 
L 238.386879 246.059395 
L 239.702862 225.254517 
L 241.675593 190.53761 
L 245.616503 120.042482 
L 246.928773 99.673329 
L 248.24035 82.288403 
L 249.55123 68.580788 
L 250.206406 63.283113 
L 250.861407 59.096962 
L 251.51623 56.064163 
L 252.170875 54.215016 
L 252.825342 53.568 
L 253.479631 54.129578 
L 254.133739 55.894139 
L 254.787667 58.844053 
L 255.441415 62.949845 
L 256.09498 68.170491 
L 257.401564 81.737075 
L 258.707414 99.002949 
L 260.012524 119.279778 
L 261.968791 153.547273 
L 265.876228 224.476331 
L 267.177177 245.367475 
L 268.477354 263.434481 
L 269.776751 277.957075 
L 270.426156 283.702095 
L 271.075365 288.356287 
L 271.724376 291.873145 
L 272.37319 294.217532 
L 273.021805 295.366023 
L 273.670221 295.307142 
L 274.318437 294.041478 
L 274.966452 291.581677 
L 275.614266 287.952317 
L 276.261879 283.189661 
L 276.909289 277.341295 
L 278.203499 262.631439 
L 279.496892 244.409186 
L 281.435437 212.110459 
L 287.239793 107.827107 
L 288.527318 89.109271 
L 289.813985 73.796818 
L 291.099788 62.500208 
L 291.742364 58.505374 
L 292.384722 55.669802 
L 293.026862 54.021823 
L 293.668782 53.577905 
L 294.310483 54.342482 
L 294.951963 56.307915 
L 295.593222 59.454566 
L 296.234259 63.750995 
L 296.875073 69.154274 
L 298.156033 83.054908 
L 299.436095 100.602294 
L 300.715255 121.096873 
L 302.632292 155.553236 
L 306.460171 226.321605 
L 307.734276 247.006026 
L 309.007446 264.800984 
L 310.279675 278.997052 
L 310.915435 284.562378 
L 311.550958 289.028278 
L 312.186243 292.350131 
L 312.82129 294.494747 
L 313.456098 295.440697 
L 314.090667 295.178529 
L 314.724995 293.710863 
L 315.359082 291.052363 
L 315.992928 287.229593 
L 316.626531 282.280748 
L 317.893009 269.213379 
L 319.158511 252.371211 
L 320.423032 232.425689 
L 322.317962 198.454149 
L 326.730738 116.442177 
L 327.989265 96.520879 
L 329.246775 79.709487 
L 330.503263 66.678218 
L 331.131123 61.748977 
L 331.758725 57.946588 
L 332.386069 55.309045 
L 333.013155 53.8627 
L 333.639981 53.622005 
L 334.266548 54.589365 
L 334.892854 56.755114 
L 335.518899 60.097614 
L 336.144683 64.583465 
L 336.770204 70.167849 
L 338.020457 84.398603 
L 339.269654 102.22254 
L 341.141456 134.108963 
L 347.363326 248.624085 
L 348.604438 266.141965 
L 349.844451 280.007494 
L 350.464043 285.39155 
L 351.083359 289.667897 
L 351.702398 292.793805 
L 352.321159 294.738044 
L 352.939641 295.481185 
L 353.557844 295.015804 
L 354.175768 293.346551 
L 354.793411 290.490105 
L 355.410773 286.475005 
L 356.027854 281.341371 
L 357.261168 267.934333 
L 358.493348 250.803488 
L 359.72439 230.631789 
L 361.568807 196.457124 
L 365.862347 114.666405 
L 367.086453 94.977515 
L 368.309387 78.46006 
L 369.531142 65.772539 
L 370.141577 61.029631 
L 370.751715 57.420763 
L 371.361557 54.981995 
L 371.971101 53.737693 
L 372.580346 53.700289 
L 373.189293 54.870159 
L 373.797941 57.235612 
L 374.406288 60.773014 
L 375.014336 65.44702 
L 376.229525 78.007151 
L 377.443506 94.415273 
L 378.656272 114.017244 
L 380.473133 147.671974 
L 384.701715 229.967706 
L 385.907093 250.221195 
L 387.111222 267.457043 
L 388.314098 280.988113 
L 388.915065 286.189378 
L 389.515717 290.274962 
L 390.116052 293.204043 
L 390.716072 294.947354 
L 391.315775 295.487477 
L 391.91516 294.819015 
L 392.514227 292.948647 
L 393.112976 289.895061 
L 393.711405 285.688767 
L 394.309514 280.371794 
L 395.504771 266.628879 
L 396.698741 249.2142 
L 397.891419 228.822027 
L 398.487273 217.759656 
L 398.487273 217.759656 
" clip-path="url(#p26368cb24a)" style="fill: none; stroke: #1f77b4; stroke-width: 1.5; stroke-linecap: square"/>
   </g>
   <g id="patch_3">
    <path d="M 57.6 307.584 
L 57.6 41.472 
" style="fill: none; stroke: #000000; stroke-width: 0.8; stroke-linejoin: miter; stroke-linecap: square"/>
   </g>
   <g id="patch_4">
    <path d="M 414.72 307.584 
L 414.72 41.472 
" style="fill: none; stroke: #000000; stroke-width: 0.8; stroke-linejoin: miter; stroke-linecap: square"/>
   </g>
   <g id="patch_5">
    <path d="M 57.6 307.584 
L 414.72 307.584 
" style="fill: none; stroke: #000000; stroke-width: 0.8; stroke-linejoin: miter; stroke-linecap: square"/>
   </g>
   <g id="patch_6">
    <path d="M 57.6 41.472 
L 414.72 41.472 
" style="fill: none; stroke: #000000; stroke-width: 0.8; stroke-linejoin: miter; stroke-linecap: square"/>
   </g>
  </g>
 </g>
 <defs>
  <clipPath id="p26368cb24a">
   <rect x="57.6" y="41.472" width="357.12" height="266.112"/>
  </clipPath>
 </defs>
</svg>
